<?xml version="1.0" standalone="no"?>
<!DOCTYPE svg PUBLIC "-//W3C//DTD SVG 20010904//EN"
 "http://www.w3.org/TR/2001/REC-SVG-20010904/DTD/svg10.dtd">
<svg version="1.0" xmlns="http://www.w3.org/2000/svg"
 width="901.000000pt" height="901.000000pt" viewBox="0 0 901.000000 901.000000"
 preserveAspectRatio="xMidYMid meet">
<metadata>
Created by potrace 1.11, written by Peter Selinger 2001-2013
</metadata>
<g transform="translate(0.000000,901.000000) scale(0.100000,-0.100000)"
fill="#000000" stroke="none">
<path d="M0 4505 l0 -4505 4505 0 4505 0 0 4505 0 4505 -4505 0 -4505 0 0
-4505z m2957 2148 c-2 -28 -1 -28 54 -27 35 1 66 8 80 18 30 20 49 21 49 0 0
-13 7 -15 33 -12 17 3 40 8 49 12 12 5 24 0 40 -16 13 -13 50 -33 83 -43 33
-11 67 -24 75 -31 8 -6 33 -15 56 -19 26 -4 41 -12 41 -21 0 -8 -5 -14 -11
-14 -6 0 -4 -5 4 -10 8 -5 59 -8 113 -5 85 3 97 2 87 -11 -10 -11 -9 -14 8
-14 37 0 54 11 41 26 -6 8 -10 14 -8 15 35 5 99 5 157 0 73 -7 74 -7 85 18
l10 26 6 -30 c4 -21 12 -30 26 -30 11 0 21 8 23 18 2 9 10 17 18 17 8 0 28 7
44 15 27 14 32 14 55 -1 16 -11 36 -14 57 -10 21 3 40 0 52 -9 11 -9 41 -15
68 -15 27 0 63 -7 79 -16 17 -8 58 -20 91 -25 33 -5 70 -16 81 -23 22 -14 48
-21 122 -32 22 -3 43 -8 46 -9 3 -2 18 3 33 10 16 8 32 12 37 9 5 -2 18 0 29
6 12 6 32 10 46 8 l25 -3 -22 -13 c-17 -11 -20 -11 -13 0 6 10 5 10 -9 -1 -21
-17 -6 -51 24 -51 11 0 17 5 14 10 -8 12 74 13 93 1 9 -5 -7 -12 -45 -20 -49
-11 -70 -10 -133 4 -99 21 -255 30 -264 16 -4 -6 -17 -11 -30 -11 -33 0 -40
-12 -14 -27 21 -11 20 -12 -22 -12 -59 -1 -85 14 -50 28 23 9 23 10 -12 10
-20 1 -38 6 -40 12 -3 9 -9 9 -25 0 -26 -13 -46 -15 -39 -2 3 5 -6 12 -20 15
-19 5 -35 0 -58 -18 -32 -24 -142 -60 -157 -50 -12 7 -102 -20 -134 -41 -30
-21 -145 -31 -145 -13 0 5 -8 7 -17 4 -50 -14 -96 -18 -89 -7 11 17 -15 13
-37 -6 -19 -17 -20 -17 -14 0 5 13 1 17 -16 17 -18 0 -19 2 -7 10 12 8 9 10
-12 10 -15 0 -30 5 -34 11 -5 9 -46 10 -145 5 -115 -5 -138 -4 -133 8 6 15
-53 28 -96 22 -14 -2 -56 -7 -95 -11 -38 -3 -99 -14 -135 -24 -47 -12 -74 -15
-93 -8 -21 7 -40 4 -76 -11 -26 -12 -60 -23 -77 -26 -31 -6 -30 -4 31 39 18
13 19 14 2 14 -10 1 -26 -3 -35 -8 -9 -5 -26 -5 -37 -1 -17 6 -16 8 9 14 15 4
51 29 78 56 28 27 54 47 59 44 5 -2 23 3 41 13 l33 18 -32 3 c-18 2 -49 -1
-70 -7 -31 -9 -39 -8 -46 5 -7 12 -12 13 -23 3 -24 -20 -17 -40 11 -33 29 7
32 -2 8 -28 -19 -22 -41 -25 -23 -3 10 12 10 15 -2 15 -8 0 -24 -13 -36 -30
-13 -17 -32 -30 -44 -30 -15 0 -18 4 -11 13 5 6 9 21 9 32 -1 11 5 23 13 26 8
3 15 14 17 24 2 13 0 15 -9 6 -6 -6 -37 -11 -68 -11 -32 0 -70 -5 -84 -10 -32
-12 -75 -3 -75 16 0 22 -17 17 -134 -38 -98 -46 -119 -52 -190 -56 -45 -2
-100 -10 -123 -17 -40 -12 -42 -12 -33 5 12 23 -13 35 -30 14 -7 -8 -19 -14
-27 -14 -9 0 -13 -6 -10 -14 4 -10 -5 -18 -26 -26 -26 -8 -29 -13 -17 -20 12
-8 13 -10 1 -10 -8 0 -23 -7 -33 -16 -14 -13 -21 -14 -32 -5 -8 7 -19 10 -24
7 -4 -2 -30 -6 -58 -7 -48 -3 -144 -43 -144 -60 0 -5 -9 -9 -20 -9 -28 0 -42
-40 -27 -79 12 -34 28 -39 47 -16 21 26 196 100 265 112 17 3 38 12 48 21 9 8
17 11 17 6 0 -5 5 -1 11 9 11 18 49 24 49 7 0 -16 31 -12 44 5 10 14 18 12 63
-11 50 -26 54 -27 72 -10 10 9 22 16 27 15 5 -1 31 1 57 6 37 6 51 13 59 31
15 32 38 31 38 -1 0 -18 -7 -26 -25 -31 -35 -9 -21 -24 23 -25 33 -1 34 -2 12
-8 -14 -5 -40 -6 -57 -3 -23 3 -33 1 -33 -8 0 -7 -8 -19 -17 -26 -14 -10 -15
-15 -6 -25 9 -9 26 -8 75 9 35 11 112 28 171 36 59 9 113 18 118 22 6 3 8 15
6 26 -4 14 -1 18 11 14 9 -2 35 -7 57 -11 22 -4 44 -9 48 -12 17 -10 -49 -43
-86 -43 -21 0 -54 -7 -74 -15 -19 -8 -49 -15 -65 -15 -27 0 -30 -2 -24 -25 6
-25 6 -25 -16 -11 -23 14 -47 19 -80 17 -9 0 -36 -16 -60 -34 -37 -28 -49 -32
-86 -29 -39 4 -48 0 -78 -29 -26 -25 -34 -29 -34 -16 0 19 -15 23 -25 7 -3 -5
-28 -10 -54 -10 -26 0 -74 -9 -106 -20 -32 -11 -73 -20 -92 -20 -26 0 -41 -8
-63 -32 -16 -17 -27 -34 -25 -37 3 -2 68 -5 146 -7 77 -2 156 -8 175 -14 19
-6 54 -12 78 -13 24 -1 40 -5 34 -8 -14 -9 19 -19 40 -12 9 3 24 12 33 19 23
20 111 45 123 35 24 -19 76 -22 134 -7 71 19 169 21 174 5 3 -9 13 -9 38 -1
35 12 77 11 96 -1 13 -8 54 3 54 14 0 9 -14 13 -35 10 -5 -1 -1 5 9 14 21 16
56 12 94 -11 16 -11 39 -13 87 -8 38 4 70 3 77 -3 7 -6 40 -11 72 -11 33 -1
63 -7 67 -13 4 -7 16 -10 27 -7 36 10 48 -8 17 -25 l-29 -15 53 -11 c88 -19
141 -13 141 16 0 8 6 13 13 10 6 -2 11 -12 9 -21 -3 -16 3 -17 51 -11 40 5 57
3 62 -6 6 -9 3 -11 -8 -6 -11 4 -14 2 -10 -9 7 -18 12 -18 34 2 10 9 24 14 31
12 8 -3 3 -12 -15 -28 -14 -13 -24 -27 -21 -32 3 -4 4 -8 2 -8 -29 -5 -247
-23 -353 -30 -77 -6 -154 -13 -171 -16 -19 -3 -34 -1 -38 5 -10 15 -36 14 -70
-4 -16 -9 -55 -17 -87 -20 -38 -2 -78 -15 -121 -36 -35 -17 -70 -33 -78 -34
-21 -2 -70 -27 -70 -35 0 -7 -71 -3 -78 5 -2 2 1 12 7 22 9 19 7 19 -57 11
-37 -5 -89 -16 -117 -25 -50 -15 -101 -56 -91 -72 9 -13 146 -21 165 -9 19 12
198 -15 215 -32 7 -7 6 -10 -2 -10 -7 0 -12 -4 -12 -10 0 -5 13 -7 29 -4 48
10 45 -13 -5 -35 -54 -24 -108 -26 -144 -6 l-25 14 38 1 c25 0 37 5 37 14 0
16 -30 26 -77 26 -17 0 -35 5 -38 10 -3 6 -15 10 -25 10 -22 0 -89 -32 -90
-42 0 -4 35 -8 78 -10 l77 -3 -75 -9 c-74 -10 -74 -10 -35 -18 55 -12 166 -28
190 -28 33 0 212 27 188 29 -21 1 -44 21 -24 21 6 0 8 7 5 15 -4 9 0 15 7 16
8 0 37 1 65 2 38 2 58 8 82 29 30 25 119 47 140 34 5 -3 51 3 103 13 52 11
102 19 111 18 20 0 81 17 153 44 28 11 68 21 90 23 23 1 51 9 64 15 12 7 34
10 48 6 14 -3 30 -2 36 3 7 6 52 15 101 21 49 7 97 16 106 21 44 23 110 40
162 40 31 0 58 4 60 9 2 5 29 11 61 13 55 3 71 10 45 22 -7 3 4 3 26 -1 23 -3
41 -1 45 6 4 6 22 14 39 17 25 5 32 3 30 -7 -2 -9 4 -13 17 -11 11 2 49 5 84
7 35 2 71 11 80 18 23 21 45 26 150 32 52 3 99 9 105 14 19 15 134 23 156 11
14 -8 26 -8 41 0 29 16 44 18 289 35 235 17 340 38 340 68 0 5 9 5 20 2 12 -4
27 -1 35 5 12 10 18 10 30 0 8 -6 19 -8 26 -4 7 4 26 7 43 6 19 0 40 7 53 20
15 14 29 19 44 15 13 -4 29 -1 36 5 10 8 18 7 32 -6 15 -14 28 -15 84 -7 67 9
117 23 173 46 19 8 35 10 41 4 6 -6 30 -3 62 7 30 8 61 14 70 11 9 -2 23 3 30
11 10 10 23 12 50 6 50 -10 123 -9 211 4 49 8 77 9 84 2 13 -13 46 -13 46 0 0
15 50 12 51 -2 0 -10 2 -10 5 -1 3 7 12 9 21 6 10 -4 14 -2 9 5 -11 19 28 23
218 25 133 1 182 5 179 13 -2 7 11 14 33 18 20 4 50 17 65 28 l29 21 20 -23
c17 -20 29 -23 73 -22 54 3 70 14 122 86 39 54 64 76 79 70 12 -5 16 1 16 23
0 20 10 38 30 56 17 15 30 31 30 36 0 5 14 3 31 -6 24 -12 36 -13 55 -4 34 15
44 14 44 -6 0 -14 4 -13 24 6 14 13 29 20 35 17 9 -6 57 18 71 35 3 3 15 12
28 18 13 7 22 18 20 24 -2 7 11 28 29 47 l33 35 -6 -35 c-10 -50 -28 -83 -79
-140 -41 -46 -49 -70 -25 -70 5 0 18 16 30 35 24 39 109 99 152 107 l27 5 -37
-46 c-72 -86 -90 -121 -53 -101 21 11 61 14 61 4 0 -3 -9 -25 -21 -50 -28 -63
-23 -84 31 -114 41 -23 43 -25 20 -28 -14 -2 -35 -8 -46 -13 -15 -8 -28 -8
-43 0 -17 9 -26 9 -43 -4 -13 -8 -33 -15 -45 -15 -27 0 -29 -10 -8 -50 l15
-29 35 20 c19 12 35 24 35 29 0 4 15 10 33 13 17 3 41 9 51 13 13 5 17 4 13
-3 -4 -6 -1 -13 5 -16 7 -2 -5 -10 -27 -17 -63 -20 -135 -100 -91 -100 8 0 16
-7 20 -15 14 -37 -26 -65 -64 -45 -17 9 -20 8 -20 -10 0 -12 -10 -25 -24 -31
-33 -15 -41 -53 -19 -87 10 -15 26 -43 37 -64 l18 -36 -42 -39 c-55 -50 -71
-58 -80 -44 -5 9 -10 8 -20 -4 -7 -8 -23 -15 -36 -15 -28 0 -95 -30 -89 -41
13 -21 -54 -37 -181 -43 -33 -1 -66 -6 -72 -10 -7 -4 -37 -11 -68 -16 -35 -6
-63 -17 -74 -30 -19 -22 -40 -27 -40 -9 0 6 -8 8 -17 5 -10 -2 -33 -7 -50 -11
-29 -6 -32 -4 -26 11 4 11 3 15 -5 10 -6 -3 -13 -2 -17 4 -7 12 -55 13 -72 2
-7 -4 -9 -13 -4 -21 7 -10 14 -10 38 2 24 13 30 13 30 2 0 -7 -7 -11 -15 -7
-10 3 -13 1 -8 -6 4 -7 1 -12 -8 -12 -21 0 -20 -27 2 -39 15 -9 15 -10 -5 -11
-12 0 -35 -11 -51 -25 -17 -14 -33 -25 -37 -25 -4 0 -31 -7 -61 -16 -43 -12
-53 -19 -44 -28 8 -10 4 -12 -17 -9 -27 5 -27 4 12 -28 37 -32 110 -66 235
-109 72 -25 78 -25 50 5 -33 35 -12 31 39 -7 42 -30 43 -32 21 -40 -13 -5 -32
-6 -44 -3 -19 6 -19 4 4 -15 14 -11 43 -33 65 -47 55 -36 99 -73 86 -73 -6 0
-11 -7 -11 -15 0 -9 9 -15 23 -15 27 0 70 -28 62 -41 -3 -5 12 -16 34 -25 23
-9 41 -19 41 -23 0 -4 17 -17 38 -29 42 -24 92 -68 92 -82 0 -5 7 -7 16 -3 13
5 15 2 10 -14 -4 -13 2 -27 23 -47 23 -22 38 -27 82 -28 56 -1 82 -12 175 -74
61 -40 76 -42 94 -9 12 22 10 28 -11 59 -13 19 -34 41 -47 48 -44 23 -54 76
-13 60 20 -7 74 -78 110 -144 20 -35 20 -40 5 -97 -14 -55 -14 -62 1 -85 19
-29 11 -54 -11 -35 -11 9 -17 9 -29 -1 -8 -7 -15 -9 -15 -6 0 4 -9 2 -20 -4
-11 -6 -20 -20 -20 -30 0 -11 -6 -20 -13 -20 -21 0 -28 12 -14 24 7 6 19 28
26 49 11 32 10 39 -3 53 -9 8 -16 22 -16 30 0 8 -4 14 -8 14 -11 0 -42 -55
-42 -74 0 -9 -7 -19 -15 -22 -24 -9 -17 -24 10 -24 14 0 25 -5 25 -10 0 -6
-10 -8 -22 -6 -72 15 -88 15 -102 1 -11 -11 -17 -12 -22 -4 -4 7 1 16 10 21
20 11 21 28 1 28 -8 0 -15 -7 -15 -15 0 -8 -4 -15 -10 -15 -5 0 -10 -8 -10
-17 0 -15 -4 -13 -23 7 -13 14 -22 33 -19 43 2 9 -1 17 -7 17 -6 0 -11 -7 -11
-15 0 -22 -17 -18 -30 6 -14 25 -5 53 12 44 7 -4 5 0 -4 8 -10 8 -18 19 -18
26 0 6 -7 11 -15 11 -8 0 -17 -14 -21 -37 -7 -42 -27 -86 -55 -122 -11 -13
-19 -33 -19 -43 0 -29 -30 -76 -53 -82 -12 -3 -17 -12 -15 -26 5 -32 21 -27
48 15 22 33 25 35 28 16 2 -11 7 -21 12 -21 5 0 10 -12 12 -27 3 -28 5 -29 52
-15 13 3 17 1 14 -9 -3 -8 -15 -13 -26 -11 -25 4 -29 -10 -9 -27 27 -22 45 18
50 110 5 83 4 86 -20 101 l-26 15 21 21 c11 11 18 23 15 26 -4 3 -1 6 6 6 6 0
11 -6 9 -12 -1 -7 6 -27 15 -45 12 -22 15 -44 11 -69 -3 -21 -3 -61 1 -90 5
-42 11 -53 31 -63 14 -6 32 -11 40 -11 8 0 26 -8 41 -17 31 -21 45 -24 103
-26 32 -2 45 -6 45 -17 0 -8 9 -16 20 -18 11 -2 27 -6 35 -9 8 -3 21 -5 28 -4
7 1 26 -4 42 -11 32 -14 44 -51 28 -83 -6 -11 -7 -17 -3 -13 5 4 14 3 21 -3 7
-6 19 -7 25 -3 9 5 5 10 -10 16 -19 7 -21 11 -11 23 15 18 40 20 40 4 0 -7 7
-17 16 -23 14 -11 11 -16 -20 -40 -20 -15 -36 -33 -36 -41 0 -19 -40 -31 -50
-14 -7 10 -18 8 -55 -8 -33 -14 -42 -22 -31 -26 9 -4 29 -2 44 4 15 6 45 8 68
4 48 -7 91 12 86 38 -2 12 3 17 17 17 14 0 21 6 21 19 0 10 6 24 14 30 21 18
32 -6 12 -28 -9 -10 -16 -25 -16 -34 0 -9 -4 -19 -10 -22 -5 -3 -10 -15 -10
-26 0 -16 7 -19 45 -19 29 0 45 -4 45 -12 0 -20 -59 -78 -73 -73 -7 3 -27 -19
-47 -50 -33 -52 -56 -73 -44 -40 7 18 -26 21 -44 3 -9 -9 -12 -8 -12 8 0 11 5
25 12 32 9 9 8 12 -5 12 -9 0 -17 6 -17 14 0 13 -20 26 -41 26 -6 0 -7 -15 -3
-35 8 -44 -15 -56 -46 -25 -19 19 -20 26 -11 47 16 34 14 42 -9 36 -22 -6 -26
8 -9 39 10 18 9 19 -13 12 -41 -14 -72 -10 -76 9 -2 12 3 17 20 18 l23 0 -24
10 c-29 11 -35 7 -36 -28 0 -37 -17 -38 -51 -3 -16 16 -36 30 -44 30 -9 0 -22
6 -30 13 -8 6 -6 2 4 -10 11 -13 24 -23 30 -23 17 0 86 -67 86 -84 0 -9 -6
-13 -15 -10 -8 3 -21 -1 -30 -10 -14 -14 -14 -16 4 -26 11 -5 31 -10 45 -10
14 0 26 -4 26 -10 0 -5 -3 -9 -7 -9 -25 4 -31 -4 -29 -41 2 -38 -6 -51 -19
-30 -3 6 -16 10 -29 10 -12 0 -26 3 -30 8 -4 4 -40 7 -79 8 -96 0 -207 14
-207 25 0 5 -9 9 -20 9 -12 0 -20 7 -20 18 0 31 -101 62 -201 61 -83 0 -87 -1
-108 -29 -26 -37 -26 -38 4 -50 15 -6 25 -17 25 -29 0 -11 3 -28 7 -38 6 -14
1 -13 -24 7 -18 15 -30 33 -30 45 2 15 -4 20 -23 20 -18 0 -24 -5 -22 -17 2
-10 -2 -18 -8 -18 -5 0 -10 -7 -10 -15 0 -8 -2 -15 -4 -15 -2 0 -11 -3 -19 -6
-8 -3 -22 2 -31 11 -12 12 -16 13 -16 3 0 -7 -9 -24 -20 -38 -17 -21 -21 -23
-30 -10 -5 8 -10 11 -10 7 0 -4 -12 3 -26 16 -26 24 -28 51 -9 101 11 25 -10
36 -70 36 -28 0 -57 6 -63 12 -7 7 -29 11 -50 9 -45 -3 -69 -21 -28 -21 43 0
20 -18 -32 -25 -26 -3 -57 -8 -69 -11 -14 -3 -30 4 -43 18 -17 19 -32 23 -78
23 -31 0 -75 -4 -97 -8 -28 -6 -36 -5 -25 2 14 10 107 24 193 30 9 0 17 6 17
12 0 7 -8 18 -17 26 -10 8 -12 12 -5 8 6 -3 12 -1 12 4 0 6 -9 11 -21 11 -11
0 -17 -5 -14 -10 9 -14 -28 -13 -43 2 -9 9 -21 9 -49 0 -21 -6 -49 -14 -63
-17 l-25 -6 25 15 c22 13 21 21 -2 17 -16 -2 -7 28 10 33 9 2 -1 2 -23 -1 -22
-4 -49 -6 -60 -5 -24 1 -76 -30 -92 -56 -15 -25 -62 -34 -80 -16 -12 12 -11
14 10 14 30 0 113 45 121 66 3 8 10 12 16 9 5 -3 10 -1 10 4 0 6 8 11 18 11
10 0 23 5 28 10 7 7 30 8 68 2 43 -7 61 -6 70 3 7 7 24 15 37 17 31 6 14 12
-76 28 -38 7 -80 18 -92 26 -12 8 -36 14 -52 14 -16 0 -40 4 -53 9 -13 4 -71
4 -133 0 -131 -11 -244 -18 -340 -23 -53 -2 -65 -1 -47 7 24 11 28 22 12 32
-6 4 -8 10 -6 14 3 4 -16 8 -42 10 -34 1 -57 10 -82 30 -19 15 -57 38 -84 52
-46 22 -48 24 -22 27 15 2 35 -3 44 -10 11 -9 14 -10 8 0 -4 7 -2 12 8 12 8 0
18 -5 21 -10 5 -8 11 -8 20 0 10 8 35 8 96 -1 72 -10 91 -9 158 7 42 10 78 19
80 21 3 2 -4 10 -15 18 -15 11 -16 15 -4 16 8 1 21 2 29 3 8 0 16 7 19 15 3 8
0 11 -7 7 -6 -4 -11 -3 -11 1 0 5 -16 7 -35 5 -20 -2 -42 1 -50 8 -13 11 -19
9 -35 -8 -25 -27 -85 -36 -142 -22 -38 10 -56 9 -101 -4 -50 -15 -66 -15 -162
-1 -59 8 -109 17 -113 19 -4 2 -41 0 -82 -4 -59 -6 -98 -3 -182 13 -60 11
-108 24 -108 28 0 7 68 24 83 21 4 -1 7 3 7 9 0 5 5 7 10 4 6 -4 10 9 10 32 0
50 47 128 67 111 11 -9 11 -14 1 -26 -11 -13 -10 -14 9 -3 19 10 22 9 17 -4
-4 -9 -3 -15 2 -14 21 4 28 -2 14 -11 -13 -8 -12 -10 3 -10 9 0 17 -4 17 -9 0
-10 42 -19 127 -26 55 -5 63 -3 84 20 28 29 50 31 109 10 23 -8 53 -15 65 -15
12 0 30 -9 41 -21 26 -29 79 -50 147 -58 43 -6 57 -4 53 5 -2 6 0 16 5 21 20
20 -37 48 -151 73 -30 7 -75 19 -100 27 -25 8 -56 17 -70 20 -14 3 -29 12 -33
19 -4 8 -16 14 -25 14 -13 0 -14 2 -3 9 17 11 6 17 -41 25 -31 5 -40 2 -60
-22 l-23 -28 -23 21 c-12 11 -22 26 -22 32 0 10 -88 53 -109 53 -6 0 -11 4
-11 9 0 18 28 31 56 26 16 -2 45 -7 64 -9 19 -2 51 -9 70 -15 44 -14 42 -14
36 7 -4 13 8 23 53 45 52 25 66 28 118 22 32 -4 84 -15 117 -26 32 -11 67 -17
78 -14 10 4 25 1 33 -5 8 -7 23 -9 37 -4 30 10 57 12 56 5 -2 -21 4 -31 14
-25 7 4 8 3 4 -4 -8 -13 -36 -5 -36 10 0 5 -7 2 -17 -7 -16 -17 -36 -17 -108
1 -28 7 -29 6 -15 -12 14 -18 14 -18 -5 -3 -11 9 -29 19 -40 24 -34 13 -189
34 -195 26 -3 -4 -22 -18 -44 -31 -45 -27 -37 -36 40 -47 42 -5 47 -4 41 11
-6 15 2 16 83 14 49 -2 93 -8 97 -12 4 -5 2 -6 -4 -2 -7 4 -20 3 -29 -2 -14
-8 -11 -11 17 -20 19 -6 53 -13 76 -17 22 -4 49 -13 60 -20 24 -19 39 -19 23
0 -7 8 -8 15 -2 15 5 0 15 -7 22 -15 7 -8 20 -15 29 -15 9 0 30 -9 46 -20 34
-23 65 -26 84 -7 11 10 12 9 6 -2 -6 -11 -3 -13 16 -7 48 14 63 15 86 10 13
-4 22 -13 21 -21 -4 -19 31 -33 57 -23 18 7 16 9 -13 20 -18 7 -32 14 -30 15
4 4 81 -16 165 -43 34 -11 65 -17 68 -14 3 3 17 0 33 -8 63 -30 71 -32 86 -27
9 4 16 1 16 -5 0 -6 3 -8 7 -4 4 4 8 15 8 24 0 9 10 21 23 27 12 5 22 13 22
17 0 5 12 8 26 8 15 0 23 4 19 11 -8 12 58 3 87 -12 9 -5 52 -12 95 -15 42 -3
88 -10 101 -15 34 -13 59 -11 97 7 28 13 38 13 57 3 18 -10 20 -14 8 -18 -14
-5 76 -20 245 -40 44 -6 89 -13 101 -16 12 -4 42 3 71 16 39 16 56 32 74 63
12 23 25 43 28 46 10 8 51 144 45 149 -3 3 -9 -1 -13 -8 -6 -10 -19 -12 -44
-7 -26 5 -38 3 -44 -8 -12 -22 -167 -31 -184 -10 -6 8 -27 14 -45 14 -19 0
-34 5 -34 10 0 6 -8 13 -17 17 -10 3 -49 20 -88 37 -38 18 -87 40 -107 49 -68
30 -198 59 -213 47 -9 -8 -15 -8 -20 0 -7 12 -99 60 -115 60 -6 0 -23 9 -38
20 -15 11 -54 25 -86 30 -82 13 -117 25 -230 81 -55 27 -107 49 -117 49 -9 0
-30 7 -45 15 -16 8 -37 15 -46 15 -9 0 -29 5 -45 12 -15 6 -34 12 -42 14 -7 1
-22 12 -32 23 -11 12 -26 21 -34 21 -8 0 -16 4 -19 9 -8 13 62 -4 120 -29 46
-20 68 -24 166 -34 61 -5 31 27 -54 58 -197 74 -357 99 -418 66 l-25 -13 30
-13 c17 -7 53 -15 81 -19 28 -3 60 -14 71 -24 10 -10 25 -21 33 -25 18 -7 -46
3 -140 23 -25 5 -82 16 -127 25 -45 9 -97 23 -115 30 -35 14 -48 14 -192 -10
-49 -8 -113 -14 -142 -14 -29 0 -55 -4 -58 -9 -3 -4 -34 -11 -68 -14 -35 -3
-110 -19 -168 -37 -120 -35 -222 -48 -214 -25 3 7 19 19 35 25 16 7 32 16 35
21 6 11 -25 0 -51 -18 -11 -7 -40 -13 -66 -13 -56 0 -130 -27 -108 -40 15 -10
11 -13 -51 -28 -54 -13 -43 -34 28 -59 68 -23 111 -49 180 -107 24 -20 48 -36
53 -36 5 0 9 -6 9 -14 0 -7 14 -19 30 -26 32 -13 57 -39 27 -27 -35 13 -15
-11 23 -28 42 -19 50 -40 31 -87 -5 -13 -14 -42 -21 -66 -13 -50 -55 -82 -108
-82 -29 0 -32 3 -27 20 5 14 2 20 -9 20 -9 0 -16 -4 -16 -9 0 -5 -9 -7 -20 -4
-24 6 -38 -21 -21 -41 10 -12 8 -13 -9 -9 -11 3 -41 0 -66 -7 -38 -11 -47 -11
-54 0 -5 8 -23 13 -44 12 -51 -3 -73 -3 -149 -2 -37 0 -72 -2 -78 -5 -22 -14
-5 -23 57 -30 40 -4 64 -11 61 -18 -2 -6 -9 -13 -17 -15 -8 -3 -10 0 -5 8 6 9
-11 11 -68 9 -42 -2 -79 0 -83 4 -4 4 0 7 9 7 9 0 17 3 17 8 0 4 -30 7 -67 8
-190 2 -290 15 -278 34 9 14 -10 20 -95 31 -52 6 -86 6 -93 0 -17 -14 -126
-32 -183 -30 -32 1 -55 8 -66 20 -23 23 -5 30 64 22 l53 -6 -22 22 c-20 19
-33 21 -164 21 -121 0 -140 2 -135 15 4 12 -3 15 -34 15 -30 0 -38 -3 -34 -14
3 -8 19 -18 35 -21 16 -4 29 -11 29 -16 0 -6 5 -7 10 -4 6 3 10 1 10 -4 0 -17
-31 -13 -85 12 -27 13 -63 27 -80 31 -27 7 -28 9 -10 16 13 5 -4 9 -50 13 -39
3 -77 8 -85 10 -67 17 -94 18 -157 2 -37 -10 -86 -19 -108 -21 -22 -2 -60 -8
-85 -14 -24 -6 -54 -9 -66 -6 -22 6 -87 -17 -155 -54 -24 -13 -56 -20 -92 -20
-30 0 -83 -9 -118 -19 -35 -11 -80 -22 -99 -26 -19 -4 -53 -17 -75 -28 -39
-20 -39 -21 -15 -28 24 -7 24 -7 -4 -8 -28 -1 -29 -2 -10 -16 10 -8 35 -17 54
-21 19 -4 38 -11 41 -16 7 -11 217 -48 274 -48 22 0 56 -5 75 -10 19 -6 76
-11 125 -12 50 0 96 -5 102 -10 7 -6 27 -7 45 -3 106 22 168 14 168 -21 0 -11
6 -13 20 -9 13 4 20 2 20 -7 0 -9 13 -12 45 -10 38 3 50 0 71 -21 l25 -25 -32
-11 c-54 -19 -26 -22 45 -6 68 16 123 12 95 -6 -11 -7 -10 -9 4 -9 10 0 20 -7
24 -15 8 -23 57 -45 97 -45 34 0 107 27 114 42 2 4 9 5 15 3 7 -2 28 -6 48 -8
20 -3 46 -14 58 -26 12 -12 34 -21 53 -21 l31 0 -19 23 c-10 12 -29 33 -42 46
-29 29 -25 33 19 21 44 -12 144 -109 114 -111 -11 -1 -24 -1 -28 0 -42 7 -117
9 -121 3 -7 -12 15 -35 74 -79 55 -41 56 -41 123 -36 65 6 83 15 52 27 -8 3
-15 10 -15 16 0 6 18 -1 41 -15 28 -18 47 -24 62 -19 27 8 100 14 232 18 55 1
110 6 123 10 12 4 22 3 22 -1 0 -15 -22 -32 -35 -27 -7 3 -16 1 -20 -5 -3 -6
-18 -11 -33 -11 -15 0 -33 -4 -41 -9 -9 -6 8 -7 45 -5 66 6 164 23 179 32 16
10 35 11 40 2 3 -5 13 -7 23 -4 15 5 15 4 1 -8 -9 -7 -14 -19 -11 -27 2 -8 0
-11 -5 -8 -6 4 -19 0 -29 -8 -17 -13 -12 -14 51 -15 39 0 102 7 140 16 39 9
92 18 118 21 35 4 52 12 63 28 18 28 79 24 71 -6 -4 -15 0 -18 24 -16 17 1 30
9 32 19 4 15 10 16 38 7 39 -11 305 -15 338 -4 18 5 20 9 10 21 -6 8 -21 14
-33 14 -11 0 -28 5 -36 11 -11 7 10 8 70 4 47 -4 113 -6 147 -6 34 0 65 -4 68
-9 3 -6 17 -10 30 -10 13 0 27 -5 31 -11 9 -15 121 -4 141 13 22 18 247 20
307 3 60 -18 80 -19 70 -3 -4 7 -3 8 4 4 27 -16 -30 -83 -79 -93 -16 -3 -29
-11 -29 -18 0 -8 -18 -16 -42 -20 -53 -9 -91 -32 -84 -51 4 -11 -5 -14 -37
-15 -59 -3 -68 -4 -104 -13 -41 -10 -43 -26 -4 -26 17 0 33 -5 37 -11 3 -6 17
-9 30 -6 13 2 29 -2 34 -9 21 -24 141 10 126 35 -6 9 143 31 203 31 19 0 30 4
26 10 -3 5 5 15 19 22 14 6 26 16 26 22 0 6 26 17 58 23 31 7 68 15 80 19 22
6 23 5 12 -12 -16 -26 -93 -57 -152 -63 -20 -2 -5 -20 20 -23 24 -3 22 -5 -18
-17 -25 -7 -49 -16 -54 -19 -14 -8 -125 -8 -119 1 6 10 -39 8 -57 -3 -12 -8
-10 -10 10 -11 23 0 23 -1 5 -9 -11 -5 -33 -11 -49 -15 -23 -5 -27 -8 -15 -16
19 -12 82 -12 74 1 -8 14 59 17 212 9 39 -2 69 -6 66 -9 -2 -3 -8 -5 -11 -6
-7 0 -32 -10 -82 -33 -22 -10 -23 -10 -2 -5 13 3 43 7 68 9 25 1 53 9 62 17
34 30 46 33 40 10 -4 -14 0 -22 13 -25 10 -3 19 -1 21 5 2 5 24 11 48 14 47 4
45 0 -3 -10 -15 -4 -25 -11 -21 -17 3 -6 18 -8 32 -5 15 4 68 8 117 11 98 5
135 12 135 26 0 6 -7 12 -15 15 -16 7 -21 34 -6 34 5 0 15 -7 22 -16 10 -13
25 -15 74 -9 73 7 91 -5 82 -59 -4 -28 -2 -35 17 -44 24 -11 116 -4 116 8 0 4
-20 6 -45 4 -60 -6 -58 12 3 19 35 4 50 2 58 -9 16 -20 208 -28 200 -9 -3 9 6
12 32 10 19 -2 124 -4 231 -4 108 -1 212 -2 231 -3 66 -4 145 -2 215 5 61 6
64 5 27 -4 -24 -6 -67 -25 -95 -42 -50 -30 -56 -31 -182 -34 -73 -2 -157 -9
-190 -18 -33 -8 -83 -14 -110 -14 -31 0 -66 -7 -90 -19 -22 -11 -70 -25 -107
-32 -37 -7 -66 -15 -66 -19 1 -3 -3 -16 -10 -28 -14 -26 -1 -39 26 -24 16 8
17 6 14 -25 -4 -31 -2 -34 21 -34 14 0 29 4 32 10 4 6 14 5 28 -2 18 -10 88
-53 106 -65 2 -1 -2 -9 -8 -17 -7 -8 -10 -24 -6 -35 5 -17 14 -20 51 -19 33 0
51 -5 68 -21 28 -26 30 -26 65 0 20 14 35 18 54 14 27 -7 29 -11 31 -50 1 -14
8 -20 24 -20 13 0 27 -7 31 -14 7 -11 15 -10 39 8 33 23 48 15 37 -19 -4 -14
-2 -20 9 -20 10 0 20 17 29 46 11 37 20 49 47 60 l33 14 -6 -45 c-4 -25 -16
-63 -27 -85 -11 -21 -20 -43 -20 -48 0 -12 45 -32 71 -32 13 0 20 -6 18 -17
-5 -51 3 -82 29 -111 35 -39 34 -69 -6 -110 -18 -18 -32 -37 -32 -42 0 -11
-78 -70 -92 -70 -4 0 -8 11 -8 25 0 23 -2 25 -21 14 -15 -8 -18 -14 -10 -22
28 -28 -3 -121 -44 -131 -14 -4 -30 -4 -36 0 -5 3 -32 -8 -58 -26 -27 -17 -81
-40 -120 -50 -85 -24 -85 -24 -77 -5 7 19 5 19 -40 -3 -28 -13 -38 -14 -41 -4
-3 6 -19 12 -37 12 -18 0 -37 5 -43 11 -7 7 -22 9 -40 4 -40 -12 -93 -13 -87
-3 3 5 -30 9 -73 9 -139 0 -173 4 -173 16 0 6 6 14 13 16 24 10 -132 7 -159
-3 -58 -22 -287 -10 -367 19 -21 8 -20 9 8 24 21 11 26 17 15 20 -45 14 -152
36 -200 41 -30 4 -68 8 -85 10 -16 3 -54 7 -83 11 -29 3 -70 14 -90 24 -39 20
-155 34 -145 18 3 -5 -3 -7 -13 -4 -27 8 -154 20 -186 18 -16 -1 -28 3 -28 9
0 5 -15 9 -32 9 -18 -1 -25 -3 -15 -6 39 -10 12 -22 -67 -28 -53 -5 -90 -3
-103 4 -11 5 -51 13 -89 17 -38 4 -105 20 -148 36 -59 21 -110 31 -195 38
-118 9 -172 18 -296 45 -38 8 -78 15 -88 15 -22 0 -87 29 -87 39 0 3 28 6 63
6 36 1 61 5 60 11 -1 5 13 11 30 12 17 2 36 7 41 12 5 5 17 5 29 -1 14 -8 18
-8 13 0 -5 7 3 11 21 12 15 0 39 2 53 3 24 3 38 0 137 -28 29 -8 67 -17 86
-20 18 -3 41 -8 50 -11 10 -3 25 -8 34 -11 10 -3 52 -7 93 -8 41 -2 86 -6 100
-9 14 -3 50 -8 80 -12 35 -4 66 -15 87 -31 25 -19 43 -24 85 -23 l53 2 -63 9
c-35 6 -61 12 -58 15 5 5 93 -5 292 -33 56 -8 132 -14 168 -14 37 0 75 -4 84
-9 10 -5 49 -12 87 -16 39 -3 108 -10 155 -15 160 -18 190 -19 190 -10 0 6
-13 10 -29 10 -17 0 -33 5 -36 10 -8 13 100 14 123 1 11 -6 21 -5 29 4 13 14
6 27 -21 42 -15 8 -9 10 27 7 26 -2 47 1 47 6 0 6 -9 10 -20 10 -11 0 -20 4
-20 8 0 5 -10 8 -22 7 -13 -1 -29 7 -38 17 -20 25 -190 36 -190 13 0 -8 8 -19
18 -24 15 -9 14 -10 -6 -11 -15 0 -21 -4 -16 -11 5 -9 -1 -10 -22 -5 -16 4
-36 7 -44 8 -8 1 -17 4 -20 8 -3 4 -22 10 -42 13 -26 4 -38 2 -42 -8 -3 -9 4
-15 22 -18 25 -4 24 -4 -5 -6 -38 -1 -83 17 -83 34 0 7 -8 15 -17 18 -10 4
-50 17 -90 30 -52 18 -70 21 -66 11 3 -8 11 -14 19 -14 8 0 14 -4 14 -8 0 -5
12 -15 28 -22 53 -25 2 -21 -60 5 -35 14 -67 27 -73 28 -5 2 -14 5 -20 9 -12
7 -57 17 -108 23 -21 3 -48 10 -60 17 -12 6 -23 11 -24 10 -2 -1 -13 -2 -25
-1 -21 1 -20 2 5 11 19 7 37 6 59 -1 30 -11 31 -11 14 8 -10 11 -30 22 -45 25
-14 3 -37 8 -51 11 -14 2 -50 12 -80 21 -30 8 -85 16 -122 16 -38 0 -68 5 -68
9 0 5 -3 8 -7 7 -5 -1 -30 2 -58 6 -27 4 -52 7 -54 6 -2 -1 -7 2 -10 7 -10 13
-45 30 -79 37 -25 6 -31 12 -29 29 1 17 -3 22 -20 21 -12 0 -20 3 -17 8 3 4
-1 9 -8 9 -7 1 -22 3 -33 5 -11 2 -38 6 -60 9 -22 3 -51 10 -65 16 -14 5 -36
11 -49 14 -14 2 -28 9 -31 15 -4 6 -18 11 -31 12 -37 1 -132 20 -154 31 -24
12 -75 15 -68 5 2 -5 -4 -8 -14 -8 -14 0 -15 -2 -4 -9 8 -5 21 -7 29 -4 8 4
19 -1 24 -11 5 -9 13 -14 18 -11 8 5 100 -32 100 -41 0 -13 -171 6 -192 21
-13 8 -36 15 -53 15 -17 0 -39 6 -50 14 -16 11 -43 12 -138 4 -130 -11 -170
-6 -161 17 6 15 -32 21 -106 18 -146 -7 -215 -14 -223 -22 -13 -13 -88 -14
-119 -2 -59 23 -108 33 -125 26 -10 -5 -22 -7 -26 -6 -5 1 -7 -6 -5 -16 3 -13
-6 -21 -27 -29 -42 -15 -39 -38 5 -40 19 -1 53 -7 75 -13 22 -6 52 -11 66 -11
14 0 34 -7 45 -16 10 -8 13 -13 7 -9 -7 3 -13 2 -13 -3 0 -5 10 -14 23 -20 18
-10 13 -11 -33 -8 -30 2 -55 5 -55 6 0 0 -17 3 -37 5 -20 2 -59 14 -87 26 -37
15 -58 19 -78 13 -16 -4 -68 -9 -118 -9 -58 -1 -111 -9 -150 -21 -50 -17 -105
-22 -160 -15 -21 3 21 21 50 22 62 2 -17 17 -105 19 -47 2 -74 5 -60 7 41 8
44 20 10 38 -21 11 -42 14 -62 9 -51 -11 -119 -16 -188 -15 -36 1 -77 -2 -90
-7 -25 -9 -24 -10 15 -26 38 -16 44 -16 105 0 36 9 71 19 78 22 6 2 12 -2 12
-10 0 -22 -279 -88 -373 -88 -47 0 -41 15 10 25 l38 8 -29 12 -30 12 25 9 c13
4 29 7 36 6 6 -2 14 2 17 7 4 5 -17 7 -51 5 -32 -2 -85 -4 -118 -4 -66 0 -125
-16 -125 -32 0 -17 -33 -37 -61 -38 -30 0 -76 -29 -46 -30 31 0 18 -17 -19
-23 -43 -7 -61 -1 -69 24 -8 24 -42 25 -67 2 -16 -14 -23 -15 -53 -4 -19 7
-40 9 -46 6 -11 -7 -84 45 -107 77 -7 10 -23 18 -35 18 -12 1 -39 7 -60 14
-36 13 -39 13 -54 -10 -19 -29 -37 -32 -28 -3 7 20 6 20 -24 5 -16 -9 -35 -16
-41 -16 -24 0 -69 41 -95 87 -23 37 -26 50 -16 65 17 27 14 48 -12 74 -15 16
-33 24 -58 24 -21 0 -36 5 -37 13 -8 58 -16 88 -23 93 -13 7 29 64 46 64 11 0
13 10 9 44 -6 43 -6 43 27 50 27 5 31 9 19 16 -8 6 -27 7 -43 4 -19 -4 -29 -1
-33 9 -3 9 -13 13 -24 10 -10 -3 -39 5 -65 16 -26 12 -56 21 -66 21 -26 0 -71
21 -95 45 -11 11 -29 25 -40 32 -17 11 -15 12 16 10 19 -1 53 -14 75 -29 24
-15 60 -28 91 -31 l52 -6 -2 37 c-1 30 -6 39 -30 51 -25 12 -27 15 -12 23 14
8 8 15 -38 46 -30 20 -50 40 -44 43 6 4 0 13 -13 23 -32 22 -52 21 -44 -3 5
-16 0 -19 -35 -23 -23 -2 -46 0 -53 4 -6 4 -17 2 -25 -4 -10 -9 -19 -9 -34 1
-33 20 -32 5 1 -19 34 -23 42 -47 14 -35 -10 4 -25 7 -33 8 -8 0 -20 4 -27 9
-8 7 -17 5 -28 -5 -8 -9 -24 -19 -35 -22 -11 -3 -20 -11 -20 -16 0 -19 -34 -8
-73 26 -22 19 -50 36 -61 36 -19 2 -19 2 1 6 13 2 29 13 37 25 12 16 18 18 35
9 19 -11 21 -9 21 14 0 20 5 25 25 25 14 0 25 6 25 13 0 7 14 18 30 24 32 12
44 53 15 53 -8 0 -15 4 -15 8 0 5 -11 14 -24 21 -29 16 -58 73 -65 130 -5 39
-10 46 -36 53 -17 4 -42 4 -59 -2 -16 -6 -31 -8 -34 -5 -3 2 4 7 14 11 44 15
103 49 107 64 3 8 8 24 13 35 7 20 7 20 -14 1 -12 -11 -25 -16 -28 -13 -11 11
15 34 45 40 15 3 36 18 45 32 l18 27 -38 -26 c-21 -14 -42 -26 -45 -26 -13 0
5 45 23 58 10 7 16 18 12 23 -3 6 4 21 16 34 23 24 12 45 -12 22 -7 -7 -31
-12 -53 -12 -22 0 -41 -4 -42 -10 -2 -5 3 -10 10 -10 6 -1 20 -5 30 -11 20
-12 14 -44 -9 -44 -8 0 -17 0 -21 -1 -5 0 -11 10 -15 23 -3 13 -6 17 -7 11 -1
-7 -8 -13 -16 -13 -8 0 -15 -4 -15 -10 0 -5 -5 -10 -11 -10 -6 0 -9 6 -6 14 4
9 0 13 -11 12 -9 -2 -17 -9 -17 -16 0 -8 -14 -17 -31 -22 -26 -7 -30 -12 -30
-43 0 -20 -7 -43 -17 -52 -16 -16 -17 -15 -18 17 -3 63 -4 68 -11 76 -13 12
-10 18 31 72 23 32 41 69 45 94 4 24 14 50 22 59 14 16 21 36 23 67 1 15 90
54 156 67 29 7 57 44 49 68 -6 18 -3 19 25 14 27 -6 32 -3 37 18 6 26 20 33
26 14 2 -7 12 -7 31 0 16 6 40 11 54 11 25 0 72 12 118 31 31 12 60 19 100 24
l38 5 -24 -19 c-14 -11 -41 -26 -60 -35 -32 -14 -33 -15 -4 -8 54 12 131 1
127 -17 -1 -7 2 -19 8 -26 9 -10 4 -15 -19 -20 -17 -4 -39 -4 -50 0 -11 3 -21
0 -24 -9 -4 -10 -15 -12 -39 -7 -40 8 -53 41 -16 41 18 0 20 2 8 10 -22 14
-32 12 -65 -16 l-30 -25 26 6 c34 8 49 -13 24 -32 -22 -15 -55 -17 -55 -3 0 6
8 10 18 10 16 1 16 1 -1 11 -21 12 -78 -4 -97 -27 -10 -12 -8 -14 14 -14 18 0
25 -4 20 -12 -5 -8 2 -9 27 -4 19 3 52 9 74 13 36 6 39 5 26 -10 -16 -20 -4
-22 34 -7 23 9 26 8 21 -5 -3 -8 -1 -15 5 -15 14 0 71 29 91 48 12 10 38 15
75 14 47 0 67 6 104 29 38 24 51 28 71 20 14 -5 30 -6 37 -1 20 11 282 1 309
-12 15 -8 26 -9 30 -2 14 20 100 64 104 53 4 -13 48 -3 48 10 0 5 -44 16 -97
26 -92 15 -222 53 -266 77 -21 11 -72 -12 -180 -84 -32 -21 -60 -38 -62 -38
-7 0 67 104 83 116 20 16 52 18 52 4 0 -5 -5 -10 -12 -10 -6 0 -9 -2 -6 -5 11
-12 37 7 31 23 -4 14 -3 14 5 3 6 -8 17 -11 27 -7 27 10 2 32 -87 77 -43 22
-78 41 -78 43 0 2 19 2 43 -1 31 -3 38 -2 27 6 -8 6 -23 11 -33 11 -29 0 -9
20 21 20 26 1 26 1 7 16 -11 8 -31 17 -45 21 -14 3 -51 17 -82 31 -59 27 -88
63 -88 112 0 19 2 20 15 10 8 -7 15 -9 15 -4 0 4 18 -10 41 -31 l40 -40 -7 30
c-8 35 -23 57 -34 50 -5 -3 -11 -1 -15 5 -3 5 1 10 9 10 9 0 16 2 16 5 0 17
-37 75 -70 110 -32 34 -39 49 -44 95 -2 30 -8 71 -11 91 -5 27 -2 44 11 65 17
26 17 28 1 15 -11 -8 -17 -9 -17 -2 0 6 12 18 27 28 16 9 43 30 61 45 18 15
37 28 43 28 16 0 69 59 69 77 0 9 -8 25 -17 35 -28 31 -14 161 21 190 15 12
17 17 7 18 -10 0 -3 12 17 33 18 18 32 37 32 42 0 11 83 89 92 87 4 -1 10 9
14 23 3 14 12 25 20 25 9 0 11 -6 7 -17 -5 -15 -4 -16 8 -7 8 6 31 14 51 18
21 4 45 14 53 23 26 25 85 63 98 63 7 0 19 6 26 13 10 10 11 9 6 -5 -9 -22 8
-24 25 -3 7 8 20 15 30 15 9 0 29 9 43 20 14 11 39 26 55 33 35 15 96 67 111
96 7 11 20 21 29 21 10 0 31 14 48 31 32 34 74 59 99 59 14 0 16 -7 10 -40 -8
-48 4 -51 65 -20 21 11 65 23 97 26 32 4 73 13 92 20 48 20 78 17 91 -7 10
-19 17 -20 78 -14 37 3 84 13 105 22 35 15 38 15 50 -2 21 -28 57 -21 127 24
77 48 89 50 87 14z m2133 -239 c40 -14 94 -39 121 -55 28 -16 55 -29 62 -29 8
0 7 4 -3 10 -12 7 -11 12 7 28 18 15 20 21 10 31 -7 7 29 -7 78 -29 50 -23
115 -53 145 -67 34 -15 64 -23 81 -19 26 5 53 -10 103 -58 14 -14 16 -21 7
-24 -7 -2 -16 0 -20 5 -12 19 -66 40 -133 53 -70 14 -96 8 -65 -14 9 -7 17
-15 17 -18 0 -10 -90 2 -123 16 -19 8 -38 12 -41 8 -3 -3 -6 2 -6 10 0 18 -27
31 -43 21 -7 -4 -3 -10 9 -15 13 -6 9 -7 -15 -3 -38 6 -64 23 -56 36 3 4 17 4
31 -1 30 -12 34 -12 34 -2 0 8 -43 28 -85 38 -16 4 -36 15 -45 25 -14 17 -113
49 -152 49 -11 0 -15 5 -12 15 8 20 11 19 94 -11z m48 -69 c2 -2 0 -5 -5 -8
-5 -3 -19 1 -33 9 l-25 14 30 -6 c17 -4 31 -8 33 -9z m27 -25 c3 -6 -1 -7 -9
-4 -18 7 -21 14 -7 14 6 0 13 -4 16 -10z m40 -18 c-3 -3 -11 0 -18 7 -9 10 -8
11 6 5 10 -3 15 -9 12 -12z m-671 -10 c3 -5 0 -9 -7 -9 -7 0 -37 -3 -67 -7
-76 -8 -30 8 62 23 4 1 9 -3 12 -7z m-1415 -18 l32 -7 -48 -22 c-54 -25 -81
-18 -62 16 10 20 27 23 78 13z m1184 -4 c-2 -3 -39 -10 -81 -17 -42 -6 -78
-17 -80 -23 -5 -13 -70 -47 -97 -50 -39 -4 -66 0 -60 10 3 6 0 10 -7 10 -19 0
-17 40 2 41 8 0 24 2 35 4 18 4 17 2 -4 -14 -53 -40 21 -36 103 6 28 14 62 29
75 32 28 8 122 8 114 1z m772 0 c3 -5 -3 -10 -14 -10 -12 0 -21 5 -21 10 0 6
6 10 14 10 8 0 18 -4 21 -10z m710 -20 c3 -5 2 -10 -4 -10 -5 0 -13 5 -16 10
-3 6 -2 10 4 10 5 0 13 -4 16 -10z m-534 -21 c82 -28 88 -34 49 -54 -49 -25
-126 -13 -114 19 3 7 -2 19 -11 26 -18 15 -20 30 -2 30 7 0 42 -10 78 -21z
m-1346 1 c-3 -5 -19 -10 -36 -10 -16 0 -29 5 -29 10 0 6 16 10 36 10 21 0 33
-4 29 -10z m-975 -29 l35 -7 -42 -7 c-24 -4 -43 -12 -43 -17 0 -16 -72 -11
-92 7 -17 16 -17 17 4 29 22 12 65 11 138 -5z m2625 0 c10 -17 -9 -19 -40 -6
l-30 13 32 1 c17 1 34 -3 38 -8z m130 -31 c3 -5 1 -10 -4 -10 -6 0 -11 5 -11
10 0 6 2 10 4 10 3 0 8 -4 11 -10z m-2230 -20 c-3 -5 -10 -10 -16 -10 -5 0 -9
5 -9 10 0 6 7 10 16 10 8 0 12 -4 9 -10z m105 -6 c0 -2 -17 -4 -37 -3 -33 1
-35 2 -13 8 23 7 50 4 50 -5z m570 -9 l75 -14 -80 4 c-83 4 -165 24 -100 24
17 0 64 -7 105 -14z m1105 4 c7 -10 4 -11 -37 -13 -16 -1 -28 1 -28 5 0 16 57
23 65 8z m975 1 c0 -5 -7 -7 -15 -4 -8 4 -15 8 -15 10 0 2 7 4 15 4 8 0 15 -4
15 -10z m-2317 -377 c-7 -2 -21 -2 -30 0 -10 3 -4 5 12 5 17 0 24 -2 18 -5z
m-150 -10 c-7 -2 -19 -2 -25 0 -7 3 -2 5 12 5 14 0 19 -2 13 -5z m4127 -177
c0 -2 -7 -6 -15 -10 -8 -3 -15 -1 -15 4 0 6 7 10 15 10 8 0 15 -2 15 -4z
m-422 -183 c6 -18 9 -33 8 -33 -1 0 -19 16 -40 35 -25 23 -36 40 -32 50 5 14
8 14 30 -2 13 -10 29 -33 34 -50z m42 -53 c0 -5 -2 -10 -4 -10 -3 0 -8 5 -11
10 -3 6 -1 10 4 10 6 0 11 -4 11 -10z m120 -66 c0 -13 -13 -10 -50 14 -2 2 2
7 10 12 17 10 40 -5 40 -26z m76 -29 c16 -14 24 -25 17 -25 -6 0 -14 4 -17 9
-3 4 -17 6 -31 3 -27 -5 -33 6 -13 26 15 15 10 16 44 -13z m171 -47 c29 -32
-1 -18 -42 19 -39 35 -39 35 -7 17 18 -10 40 -27 49 -36z m-43 -44 c3 -9 -1
-14 -14 -14 -21 0 -34 15 -25 30 7 12 32 2 39 -16z m-404 -44 c0 -5 -4 -10 -9
-10 -6 0 -13 5 -16 10 -3 6 1 10 9 10 9 0 16 -4 16 -10z m-55 -28 c-3 -3 -11
0 -18 7 -9 10 -8 11 6 5 10 -3 15 -9 12 -12z m388 -58 c-2 -7 7 -20 21 -28 14
-9 38 -24 53 -33 19 -11 23 -18 14 -21 -9 -3 -1 -16 25 -38 36 -31 37 -33 15
-34 -23 0 -23 -1 -6 -26 9 -14 15 -28 12 -30 -5 -6 -67 72 -67 85 0 14 -53 41
-80 41 -11 0 -20 5 -20 10 0 6 -11 15 -25 20 l-26 10 21 40 c19 36 22 39 44
29 14 -7 22 -17 19 -25z m-179 -67 c21 -21 36 -40 34 -41 -7 -8 -67 7 -63 15
3 4 -5 13 -17 20 -32 17 -98 71 -98 80 0 16 109 -40 144 -74z m511 -35 c-2 -2
-15 4 -30 14 -18 12 -23 19 -14 25 11 6 53 -31 44 -39z m-380 -2 c8 -13 -25
-13 -45 0 -12 8 -9 10 12 10 15 0 30 -4 33 -10z m-17 -65 c26 -30 27 -36 7
-29 -8 4 -15 11 -15 16 0 6 -8 17 -17 24 -10 7 -13 14 -7 14 6 0 20 -11 32
-25z m110 -62 c13 -8 22 -16 20 -19 -7 -7 -88 28 -88 38 0 11 37 1 68 -19z
m-6178 -5 c0 -4 -15 -8 -32 -9 -28 0 -30 -2 -13 -9 16 -7 17 -9 3 -9 -23 -1
-32 16 -13 26 19 11 55 11 55 1z m6245 -49 c4 -6 5 -12 2 -15 -7 -7 -37 7 -37
17 0 13 27 11 35 -2z m-33 -51 c-9 -9 -12 -7 -12 12 0 19 3 21 12 12 9 -9 9
-15 0 -24z m258 -54 c0 -8 -4 -14 -10 -14 -5 0 -10 2 -10 4 0 2 -3 12 -6 20
-5 12 -2 15 10 10 9 -3 16 -12 16 -20z m-3040 -176 c0 -3 -9 -6 -20 -5 -11 1
-20 5 -20 9 0 3 9 6 20 5 11 -1 20 -5 20 -9z m-2033 -14 c-3 -3 -12 -4 -19 -1
-8 3 -5 6 6 6 11 1 17 -2 13 -5z m3053 -14 c25 -10 36 -19 25 -19 -23 1 -107
37 -85 38 8 0 35 -9 60 -19z m-1030 -20 c0 -5 -4 -10 -10 -10 -5 0 -10 5 -10
10 0 6 5 10 10 10 6 0 10 -4 10 -10z m3190 -6 c0 -9 -5 -14 -12 -12 -18 6 -21
28 -4 28 9 0 16 -7 16 -16z m-4810 -37 c0 -5 9 -5 20 -2 13 4 20 2 20 -8 0 -9
-11 -13 -34 -13 -19 1 -31 5 -28 10 3 5 -2 7 -11 3 -11 -4 -17 -1 -17 8 0 10
9 14 25 13 14 -1 25 -6 25 -11z m2630 -19 c0 -12 -38 -10 -45 2 -4 6 5 9 19 8
15 -1 26 -6 26 -10z m-603 -54 c-3 -3 -12 -4 -19 -1 -8 3 -5 6 6 6 11 1 17 -2
13 -5z m2236 -39 c-3 -9 -8 -14 -10 -11 -3 3 -2 9 2 15 9 16 15 13 8 -4z m192
-50 c24 -20 34 -34 25 -35 -21 0 -57 26 -70 51 -16 28 0 23 45 -16z m305 -75
c-12 -23 -89 -75 -98 -66 -3 4 19 29 49 57 52 48 72 52 49 9z m-244 -52 c13
-20 -31 10 -61 43 l-30 33 42 -33 c24 -18 46 -37 49 -43z m-2622 29 c3 3 27
-16 53 -43 26 -26 39 -44 28 -39 -11 4 -33 10 -50 13 -16 3 -34 11 -40 18 -5
7 -32 15 -60 18 -50 5 -118 25 -132 40 -9 9 87 2 127 -9 24 -7 25 -7 5 9 -19
15 -17 15 22 2 22 -8 44 -12 47 -9z m191 -68 c5 -5 -10 -9 -37 -9 -44 0 -65
10 -52 23 8 8 77 -4 89 -14z m-4955 1 c0 -5 -4 -10 -10 -10 -5 0 -10 5 -10 10
0 6 5 10 10 10 6 0 10 -4 10 -10z m4733 3 c-7 -2 -19 -2 -25 0 -7 3 -2 5 12 5
14 0 19 -2 13 -5z m172 -43 c3 -5 13 -6 22 -3 11 4 14 2 11 -8 -7 -22 -32 -22
-46 1 -7 11 -8 20 -3 20 6 0 12 -4 16 -10z m-5095 -36 c0 -8 -4 -12 -10 -9 -5
3 -10 13 -10 21 0 8 5 12 10 9 6 -3 10 -13 10 -21z m35 -14 c3 -5 1 -10 -4
-10 -6 0 -11 5 -11 10 0 6 2 10 4 10 3 0 8 -4 11 -10z m5222 -17 c4 -10 13
-24 20 -31 7 -7 13 -18 13 -23 0 -14 -54 -11 -76 6 -19 14 -19 14 1 15 19 1
19 1 3 14 -26 19 -22 36 7 36 15 0 28 -7 32 -17z m108 1 c20 -8 35 -17 32 -20
-3 -3 -22 4 -44 15 -46 24 -40 27 12 5z m-5095 -24 c12 -8 11 -10 -7 -10 -12
0 -25 5 -28 10 -8 13 15 13 35 0z m4878 -27 c-9 -11 -13 -12 -20 -1 -8 10 -11
10 -15 0 -5 -13 -23 -7 -23 8 0 5 16 9 35 8 28 -1 33 -4 23 -15z m-1035 -19
c3 -4 2 -15 -4 -26 -7 -14 -16 -17 -32 -12 -12 4 -28 7 -35 7 -8 0 -7 6 5 19
16 18 53 24 66 12z m-3973 -30 c0 -2 -7 -4 -15 -4 -8 0 -15 4 -15 10 0 5 7 7
15 4 8 -4 15 -8 15 -10z m3757 0 c-3 -3 -12 -4 -19 -1 -8 3 -5 6 6 6 11 1 17
-2 13 -5z m149 -21 c-10 -11 -37 -12 -30 -2 3 5 12 9 21 9 9 0 13 -3 9 -7z
m-3526 -99 c0 -8 -7 -14 -15 -14 -10 0 -15 10 -15 26 0 22 2 25 15 14 8 -7 15
-19 15 -26z m3627 20 c-3 -3 -12 -4 -19 -1 -8 3 -5 6 6 6 11 1 17 -2 13 -5z
m-3667 -26 c0 -13 -23 -5 -28 10 -2 7 2 10 12 6 9 -3 16 -11 16 -16z m7200 -7
c0 -12 -20 -25 -27 -18 -7 7 6 27 18 27 5 0 9 -4 9 -9z m403 -104 c-6 -111 -7
-117 -14 -117 -12 0 -19 30 -19 81 0 39 -3 47 -15 43 -12 -5 -15 2 -15 29 0
37 10 46 46 39 20 -3 21 -9 17 -75z m-7553 57 c0 -2 -7 -4 -15 -4 -8 0 -15 4
-15 10 0 5 7 7 15 4 8 -4 15 -8 15 -10z m-113 0 c-3 -3 -12 -4 -19 -1 -8 3 -5
6 6 6 11 1 17 -2 13 -5z m5368 -14 c3 -5 -1 -10 -9 -10 -9 0 -16 5 -16 10 0 6
4 10 9 10 6 0 13 -4 16 -10z m412 4 c-3 -3 -12 -4 -19 -1 -8 3 -5 6 6 6 11 1
17 -2 13 -5z m1498 -85 c11 -17 0 -20 -21 -4 -17 13 -17 14 -2 15 9 0 20 -5
23 -11z m-351 -24 c11 -8 30 -15 42 -15 13 0 26 -5 30 -11 4 -8 -4 -9 -27 -4
-52 11 -79 23 -79 35 0 14 11 12 34 -5z m-14 -185 c0 -5 -5 -10 -11 -10 -5 0
-7 5 -4 10 3 6 8 10 11 10 2 0 4 -4 4 -10z m-3985 -410 c-3 -5 -13 -10 -21
-10 -8 0 -12 5 -9 10 3 6 13 10 21 10 8 0 12 -4 9 -10z m1110 -15 c17 -7 23
-14 15 -14 -8 0 -28 6 -45 14 -16 7 -23 14 -15 14 8 0 29 -6 45 -14z m390
-123 c-3 -3 -11 0 -18 7 -9 10 -8 11 6 5 10 -3 15 -9 12 -12z m1241 -192 c0
-12 -4 -16 -9 -11 -5 5 -6 14 -3 20 10 15 12 14 12 -9z"/>
<path d="M2664 6575 c-10 -8 -14 -15 -8 -15 6 0 17 7 24 15 16 19 9 19 -16 0z"/>
<path d="M3022 6561 c4 -13 18 -16 19 -4 0 4 -5 9 -11 12 -7 2 -11 -2 -8 -8z"/>
<path d="M3089 6563 c-15 -2 -35 -13 -45 -25 -19 -20 -19 -20 15 -13 23 5 31
4 27 -4 -10 -15 8 -14 50 4 60 25 29 50 -47 38z"/>
<path d="M8028 6477 c-7 -8 -20 -16 -27 -18 -8 -3 -15 -12 -17 -20 -1 -7 -6
-23 -10 -34 -6 -17 -4 -16 18 5 27 27 64 80 55 80 -3 0 -12 -6 -19 -13z"/>
<path d="M2615 6450 c-3 -6 1 -7 9 -4 18 7 21 14 7 14 -6 0 -13 -4 -16 -10z"/>
<path d="M7981 6176 c-14 -17 2 -31 22 -19 6 4 21 6 33 5 11 -2 27 4 34 12 11
14 7 16 -33 16 -26 0 -49 -6 -56 -14z"/>
<path d="M2180 6170 c-12 -8 -11 -10 8 -10 12 0 22 5 22 10 0 13 -11 13 -30 0z"/>
<path d="M6690 6080 c0 -5 7 -7 15 -4 8 4 15 8 15 10 0 2 -7 4 -15 4 -8 0 -15
-4 -15 -10z"/>
<path d="M1750 6060 c-13 -8 -12 -10 3 -10 9 0 17 5 17 10 0 12 -1 12 -20 0z"/>
<path d="M2018 5873 c6 -2 18 -2 25 0 6 3 1 5 -13 5 -14 0 -19 -2 -12 -5z"/>
<path d="M2110 5781 c-8 -16 -8 -21 2 -21 7 -1 1 -8 -14 -16 -40 -21 -35 -27
20 -19 74 9 85 14 71 31 -9 11 -8 14 2 14 23 0 -4 17 -38 25 -26 5 -34 2 -43
-14z"/>
<path d="M2400 5668 c-87 -47 -85 -46 -77 -54 3 -3 27 1 54 9 26 9 83 18 125
21 88 5 104 11 88 31 -7 8 -9 19 -5 26 6 8 2 8 -14 0 -14 -8 -21 -8 -21 -1 0
25 -77 9 -150 -32z"/>
<path d="M2042 5675 c-18 -8 -36 -14 -40 -13 -21 3 -72 -16 -72 -28 0 -25 16
-22 95 17 75 36 88 55 17 24z"/>
<path d="M1130 5660 c-12 -8 -11 -10 8 -10 12 0 22 5 22 10 0 13 -11 13 -30 0z"/>
<path d="M1880 5660 c-12 -8 -10 -10 8 -10 13 0 20 4 17 10 -7 12 -6 12 -25 0z"/>
<path d="M6785 5659 c-119 -20 -129 -36 -22 -37 106 -2 181 23 131 42 -19 7
-43 6 -109 -5z"/>
<path d="M1786 5653 c-10 -11 20 -43 40 -43 19 0 41 26 31 37 -7 6 -65 12 -71
6z"/>
<path d="M4530 5651 c0 -9 -8 -11 -24 -7 -19 5 -29 0 -43 -20 l-19 -26 -35 21
c-39 23 -60 16 -64 -20 -1 -13 -3 -30 -4 -36 -1 -9 -18 -13 -49 -13 -26 0 -63
-5 -82 -10 -19 -6 -100 -24 -180 -40 -214 -44 -263 -55 -285 -67 -11 -6 -34
-17 -51 -26 -17 -9 -53 -19 -80 -22 -27 -3 -58 -7 -69 -10 -11 -2 -39 -4 -63
-4 -36 -1 -44 -5 -52 -26 -5 -14 -22 -30 -37 -35 -16 -5 -41 -17 -57 -25 -27
-15 -28 -15 -15 1 7 9 33 25 56 35 24 10 43 24 43 30 0 8 -4 8 -12 2 -17 -13
-68 -23 -68 -13 0 4 10 15 23 23 l22 16 -23 0 c-12 1 -38 -5 -57 -13 -18 -8
-35 -13 -37 -11 -2 3 -4 -10 -3 -27 0 -26 -7 -37 -34 -55 -19 -13 -44 -23 -56
-23 -13 0 -28 -7 -35 -15 -7 -8 -16 -12 -21 -9 -13 8 -11 24 4 24 20 0 74 50
60 56 -8 4 3 19 30 41 l42 36 -35 -8 c-37 -8 -74 -23 -153 -61 -52 -25 -72
-30 -63 -15 4 5 1 11 -5 13 -6 2 7 17 30 32 46 32 50 41 21 49 -11 3 -20 2
-20 -2 0 -5 -42 -6 -93 -4 -75 3 -106 0 -153 -16 -32 -11 -74 -22 -92 -26 -23
-5 -32 -12 -30 -23 2 -13 -4 -16 -33 -14 -21 2 -40 -1 -43 -6 -8 -13 56 -22
71 -10 7 6 19 8 26 5 7 -2 39 -1 71 5 46 7 61 6 67 -4 7 -10 12 -11 29 0 11 6
30 12 42 12 l23 0 -25 -21 -25 -21 32 6 c19 3 33 1 36 -7 6 -15 98 -45 157
-50 25 -2 61 -11 80 -20 46 -21 69 -23 103 -9 15 7 69 20 120 31 50 11 159 36
241 55 83 20 152 33 155 31 2 -3 -1 -5 -7 -5 -7 0 -12 -4 -12 -8 0 -11 133 4
159 17 11 6 33 11 50 11 16 0 40 4 53 9 13 5 49 19 81 31 31 12 57 28 57 35 0
15 199 30 214 15 5 -5 39 -7 81 -3 68 5 72 4 78 -16 4 -17 13 -21 42 -21 37 0
37 0 30 33 -4 17 -8 41 -9 52 -1 11 -5 26 -10 34 -7 10 -2 12 25 6 47 -10 48
-11 42 -50 -3 -19 -2 -42 2 -52 5 -10 9 -22 9 -28 1 -13 181 -8 207 6 10 5 19
19 19 29 0 11 6 20 14 20 8 0 17 4 20 9 4 5 -5 8 -19 7 -14 -2 -30 3 -36 10
-27 33 -98 1 -93 -42 3 -35 -19 -25 -26 12 -3 16 -4 49 -2 74 4 44 6 47 58 75
29 16 50 32 46 36 -14 14 -117 21 -234 18 -49 -2 -60 1 -77 22 -12 14 -20 19
-21 10z m-526 -290 c4 -5 -3 -7 -14 -4 -23 6 -26 13 -6 13 8 0 17 -4 20 -9z"/>
<path d="M1126 5622 c-4 -7 -5 -23 -2 -36 3 -12 1 -37 -4 -56 -9 -31 -8 -32 9
-16 20 18 36 22 26 6 -3 -5 -1 -10 5 -10 7 0 9 7 6 16 -4 9 2 22 15 32 27 22
17 51 -16 45 -17 -4 -24 0 -27 14 -3 13 -5 15 -12 5z"/>
<path d="M2057 5617 c-56 -16 -39 -32 36 -35 54 -2 68 0 73 13 4 9 4 19 0 22
-11 11 -69 11 -109 0z"/>
<path d="M6538 5613 c7 -3 16 -2 19 1 4 3 -2 6 -13 5 -11 0 -14 -3 -6 -6z"/>
<path d="M1978 5603 c7 -3 16 -2 19 1 4 3 -2 6 -13 5 -11 0 -14 -3 -6 -6z"/>
<path d="M6060 5552 c-16 -5 -39 -32 -40 -44 0 -5 7 -8 16 -8 13 0 14 -3 5
-14 -10 -12 -3 -17 40 -31 37 -13 57 -15 73 -7 29 13 144 34 155 28 4 -3 21
-1 37 3 29 9 29 9 -28 35 -48 23 -71 27 -145 27 -48 0 -90 4 -93 8 -3 4 -12 6
-20 3z"/>
<path d="M1140 5451 c0 -5 12 -23 26 -38 18 -19 24 -22 20 -10 -3 10 -6 23 -6
27 0 5 -9 14 -20 20 -12 7 -20 7 -20 1z"/>
<path d="M2808 5443 c7 -3 16 -2 19 1 4 3 -2 6 -13 5 -11 0 -14 -3 -6 -6z"/>
<path d="M5831 5389 c-40 -4 -78 -12 -84 -18 -11 -11 -7 -11 123 -16 19 -1 44
2 55 6 11 4 29 10 39 13 10 4 16 9 13 13 -10 9 -65 10 -146 2z"/>
<path d="M4405 5350 c-10 -16 5 -50 22 -50 9 0 32 10 52 22 l36 23 -30 6 c-47
10 -73 10 -80 -1z"/>
<path d="M5165 5340 c-49 -10 -92 -18 -95 -19 -3 -1 2 -6 10 -11 21 -14 137
-13 142 1 5 16 88 1 85 -14 -3 -16 128 -21 164 -7 15 7 39 25 54 42 l28 31
-26 -7 c-14 -3 -63 -8 -108 -11 -45 -3 -87 -9 -92 -12 -6 -4 -8 0 -5 8 8 21
-50 20 -157 -1z"/>
<path d="M6948 5343 c7 -3 16 -2 19 1 4 3 -2 6 -13 5 -11 0 -14 -3 -6 -6z"/>
<path d="M5565 5320 c-3 -5 -2 -10 4 -10 5 0 13 5 16 10 3 6 2 10 -4 10 -5 0
-13 -4 -16 -10z"/>
<path d="M5933 5300 c-13 -5 -23 -14 -23 -20 0 -6 -10 -15 -22 -20 -19 -8 -16
-9 12 -4 19 4 53 17 75 30 l40 24 -30 -1 c-16 0 -40 -4 -52 -9z"/>
<path d="M6063 5289 c-18 -5 -35 -14 -38 -19 -11 -17 48 -10 85 10 32 18 33
19 10 19 -14 -1 -39 -5 -57 -10z"/>
<path d="M2488 5283 c7 -3 16 -2 19 1 4 3 -2 6 -13 5 -11 0 -14 -3 -6 -6z"/>
<path d="M6716 5281 c5 -5 23 -12 39 -16 29 -6 29 -6 11 9 -21 17 -67 23 -50
7z"/>
<path d="M5053 5273 c5 -5 66 -14 202 -30 65 -7 51 7 -17 19 -64 11 -193 19
-185 11z"/>
<path d="M4733 5253 c9 -2 25 -2 35 0 9 3 1 5 -18 5 -19 0 -27 -2 -17 -5z"/>
<path d="M1549 5226 c-9 -12 -14 -26 -12 -33 6 -17 100 -46 129 -40 14 2 41 1
60 -3 30 -7 34 -5 34 12 0 10 -4 17 -8 14 -15 -9 -82 14 -82 28 0 44 -92 61
-121 22z"/>
<path d="M4507 5222 c-35 -27 -52 -34 -164 -62 -55 -14 -58 -39 -5 -42 72 -4
97 1 226 43 72 24 133 44 135 46 10 7 -16 22 -49 28 -98 17 -104 17 -143 -13z"/>
<path d="M5753 5243 c9 -2 23 -2 30 0 6 3 -1 5 -18 5 -16 0 -22 -2 -12 -5z"/>
<path d="M6786 5239 c-16 -4 -33 -6 -37 -3 -4 2 -10 0 -14 -6 -3 -5 3 -10 14
-10 12 0 21 -4 21 -9 0 -5 6 -11 13 -14 6 -2 4 -3 -5 -2 -9 2 -26 -6 -37 -16
-18 -17 -23 -17 -66 -4 -59 17 -91 8 -44 -13 19 -8 29 -16 22 -19 -15 -6 -63
19 -87 46 -20 22 -65 28 -82 11 -6 -6 -28 -11 -50 -12 -21 -1 -49 -8 -61 -15
-20 -13 -114 -19 -168 -11 -15 2 -21 -3 -23 -24 -4 -31 -23 -36 -47 -12 -22
22 -98 13 -148 -16 -20 -12 -37 -23 -37 -24 0 -1 16 0 36 2 23 3 39 -1 47 -11
7 -8 23 -17 37 -20 14 -3 79 -19 144 -36 66 -17 121 -29 123 -27 3 2 -6 7 -19
11 -36 11 -183 85 -169 85 13 0 128 -45 204 -79 25 -12 56 -21 68 -21 13 0 36
-4 53 -10 17 -5 58 -15 90 -21 74 -14 57 -29 -32 -29 -57 0 -62 -2 -48 -15 32
-33 158 -64 276 -69 14 -1 30 -7 35 -14 13 -16 171 -46 188 -36 7 4 9 3 4 -1
-15 -18 46 -32 97 -22 80 14 135 -12 64 -31 l-33 -9 32 -16 c18 -9 46 -17 62
-17 33 0 81 -19 81 -32 0 -4 3 -7 8 -6 4 2 23 -7 43 -20 28 -17 47 -21 84 -17
43 4 51 1 75 -25 15 -16 39 -32 53 -36 15 -3 27 -11 27 -16 0 -7 4 -7 13 -1 6
6 20 13 31 17 14 5 17 2 12 -9 -3 -9 1 -18 9 -21 8 -4 15 -14 16 -23 0 -10 4
-8 10 8 7 18 6 28 -6 41 -8 9 -15 21 -15 27 0 24 -34 75 -55 83 -25 10 -43 30
-26 30 6 0 11 7 11 15 0 8 -9 15 -20 15 -11 0 -23 7 -26 15 -4 8 -12 15 -20
15 -7 0 -27 12 -43 28 -87 81 -182 149 -258 183 -63 28 -76 39 -63 53 18 23
-42 73 -115 95 -42 13 -93 40 -134 70 -84 61 -81 60 -115 50z m-686 -133 c0
-3 -4 -8 -10 -11 -5 -3 -10 -1 -10 4 0 6 5 11 10 11 6 0 10 -2 10 -4z m899
-52 c9 -8 -85 -2 -104 6 -12 5 4 6 40 3 33 -3 62 -7 64 -9z m-85 -190 c9 -8
16 -20 16 -25 0 -14 -18 -11 -27 4 -4 8 -17 19 -28 25 -20 11 -20 11 2 12 12
0 29 -7 37 -16z m56 -49 c-7 -8 -17 -12 -23 -8 -6 4 -3 11 8 19 23 17 32 10
15 -11z"/>
<path d="M4400 5222 c-59 -18 -95 -35 -81 -40 9 -3 113 33 130 45 14 9 -10 7
-49 -5z"/>
<path d="M4758 5193 c7 -3 16 -2 19 1 4 3 -2 6 -13 5 -11 0 -14 -3 -6 -6z"/>
<path d="M4878 5193 c7 -3 16 -2 19 1 4 3 -2 6 -13 5 -11 0 -14 -3 -6 -6z"/>
<path d="M4760 5178 c-32 -10 -33 -11 -12 -17 13 -3 23 -10 22 -16 -1 -5 4
-11 11 -14 6 -2 9 0 6 5 -8 14 153 17 169 3 16 -13 64 -4 64 12 0 6 -13 7 -35
3 -35 -6 -52 11 -17 18 10 3 4 6 -15 9 -19 3 -30 2 -26 -4 4 -6 -8 -7 -28 -3
-76 14 -106 15 -139 4z"/>
<path d="M4260 5156 c0 -2 7 -6 15 -10 8 -3 15 -1 15 4 0 6 -7 10 -15 10 -8 0
-15 -2 -15 -4z"/>
<path d="M4578 5132 c-20 -4 -25 -22 -5 -21 6 0 21 4 31 8 15 6 16 9 5 12 -8
3 -22 4 -31 1z"/>
<path d="M1335 5110 c3 -5 15 -10 26 -10 11 0 17 5 14 10 -3 6 -15 10 -26 10
-11 0 -17 -4 -14 -10z"/>
<path d="M1420 5080 c0 -5 7 -10 15 -10 8 0 12 -6 9 -14 -6 -15 13 -25 68 -36
44 -9 41 0 -14 41 -41 29 -78 38 -78 19z"/>
<path d="M4398 5071 c-47 -12 -71 -13 -125 -4 -100 16 -292 7 -322 -15 -39
-29 -25 -37 62 -38 111 -1 118 -2 77 -20 -19 -8 -37 -19 -40 -23 -3 -5 -14
-11 -25 -13 -11 -2 11 -10 49 -17 53 -9 71 -9 76 0 5 7 18 9 34 5 27 -7 100 9
123 27 18 13 5 29 -18 22 -10 -4 -19 -3 -19 2 0 5 38 21 84 37 84 28 114 42
106 48 -3 2 -31 -3 -62 -11z"/>
<path d="M5665 5064 c-10 -8 -17 -15 -14 -18 2 -2 33 -6 69 -9 47 -4 70 -2 84
8 18 13 17 14 -5 19 -61 13 -117 12 -134 0z"/>
<path d="M4490 5040 c-13 -9 -13 -10 0 -10 8 0 22 5 30 10 13 9 13 10 0 10 -8
0 -22 -5 -30 -10z"/>
<path d="M5273 5040 c-51 -20 -3 -21 77 -1 l35 9 -45 0 c-25 1 -55 -3 -67 -8z"/>
<path d="M1607 4889 c7 -7 15 -10 18 -7 3 3 -2 9 -12 12 -14 6 -15 5 -6 -5z"/>
<path d="M1873 4769 c-42 -12 -58 -35 -17 -25 22 6 74 39 54 35 -3 0 -19 -5
-37 -10z"/>
<path d="M1911 4757 c-8 -11 -5 -13 19 -9 17 2 33 8 36 13 9 14 -42 10 -55 -4z"/>
<path d="M2005 4708 c-22 -5 -68 -16 -101 -24 -34 -7 -75 -19 -90 -25 -16 -7
-33 -11 -38 -10 -21 5 -45 -11 -39 -26 5 -12 2 -15 -10 -10 -9 3 -37 -1 -63
-10 l-46 -16 26 -22 c14 -12 26 -30 26 -39 0 -11 9 -16 30 -16 21 0 28 -4 24
-14 -7 -19 13 -56 30 -56 8 0 30 18 50 40 20 22 38 40 41 40 2 0 37 15 77 33
147 68 219 99 246 106 27 7 27 7 -19 34 -48 28 -77 31 -144 15z"/>
<path d="M1350 4700 c-9 -6 -10 -10 -3 -10 6 0 15 5 18 10 8 12 4 12 -15 0z"/>
<path d="M7656 4675 c25 -25 54 -33 54 -15 0 8 -61 40 -76 40 -2 0 8 -11 22
-25z"/>
<path d="M467 4604 c-40 -27 -45 -34 -23 -34 16 0 72 47 64 55 -2 2 -21 -7
-41 -21z"/>
<path d="M7810 4620 c0 -5 5 -10 10 -10 6 0 10 5 10 10 0 6 -4 10 -10 10 -5 0
-10 -4 -10 -10z"/>
<path d="M845 4610 c-18 -8 -17 -9 7 -9 15 -1 30 4 33 9 7 12 -12 12 -40 0z"/>
<path d="M957 4598 c-21 -11 -36 -23 -33 -26 9 -9 85 20 90 34 7 18 -11 16
-57 -8z"/>
<path d="M7840 4594 c0 -8 4 -14 9 -14 5 0 11 -13 15 -30 4 -21 11 -30 26 -30
13 0 20 -7 20 -19 0 -12 15 -27 40 -40 l40 -20 25 23 c28 26 31 36 11 36 -7 0
-16 -9 -19 -20 -3 -11 -10 -20 -16 -20 -12 0 -3 32 13 42 6 4 4 14 -7 26 -9
10 -14 22 -10 27 5 4 3 5 -4 1 -6 -3 -27 3 -46 14 -52 31 -97 42 -97 24z"/>
<path d="M2166 4593 c-11 -3 -37 -16 -58 -29 -21 -14 -42 -23 -47 -20 -9 6
-91 -33 -91 -44 0 -4 11 -5 25 -2 14 2 25 2 25 0 0 -13 -61 -68 -107 -97 -57
-35 -65 -50 -33 -58 11 -3 17 -9 14 -14 -13 -21 203 12 253 39 12 7 30 12 41
12 11 0 25 7 32 15 7 8 25 15 41 15 16 0 29 4 29 9 0 15 95 29 240 34 132 5
130 5 130 16 0 15 -52 22 -87 12 -30 -9 -32 -8 -30 12 2 19 -4 22 -57 28 -32
4 -79 16 -105 26 -106 46 -168 59 -215 46z"/>
<path d="M639 4571 c-22 -19 -23 -20 -4 -21 30 0 52 17 39 30 -8 8 -18 5 -35
-9z"/>
<path d="M796 4571 c-4 -6 -22 -11 -39 -11 -22 0 -28 -3 -18 -9 16 -11 -1 -23
-22 -16 -17 7 -83 -30 -91 -50 -3 -8 -17 -15 -30 -15 -25 0 -54 -34 -38 -43
16 -11 63 7 74 26 23 43 84 79 98 58 9 -15 122 29 116 44 -2 6 -9 9 -16 7 -7
-2 -16 2 -20 9 -6 8 -9 8 -14 0z"/>
<path d="M563 4526 c0 -11 5 -13 19 -5 10 5 18 12 18 14 0 3 -8 5 -18 5 -10 0
-19 -7 -19 -14z"/>
<path d="M7815 4530 c3 -5 8 -10 11 -10 2 0 4 5 4 10 0 6 -5 10 -11 10 -5 0
-7 -4 -4 -10z"/>
<path d="M3296 4511 c6 -6 39 -15 75 -21 35 -5 84 -13 109 -19 25 -6 54 -10
65 -10 54 1 -92 38 -220 56 -30 4 -37 3 -29 -6z"/>
<path d="M1026 4442 c-3 -3 -6 -12 -6 -19 0 -17 42 -14 47 3 4 12 -32 26 -41
16z"/>
<path d="M1140 4435 c-9 -11 -8 -20 9 -43 11 -16 17 -33 13 -37 -4 -4 7 -5 23
-1 35 8 56 26 39 33 -6 2 -9 14 -7 27 4 18 -1 25 -19 29 -35 10 -44 8 -58 -8z"/>
<path d="M932 4423 c-6 -2 -10 -9 -7 -13 7 -11 35 -2 35 11 0 10 -8 10 -28 2z"/>
<path d="M2325 4410 c-16 -7 -17 -9 -3 -9 9 -1 20 4 23 9 7 11 7 11 -20 0z"/>
<path d="M2408 4413 c7 -3 16 -2 19 1 4 3 -2 6 -13 5 -11 0 -14 -3 -6 -6z"/>
<path d="M1386 4383 c-11 -11 -6 -23 9 -23 8 0 15 4 15 9 0 13 -16 22 -24 14z"/>
<path d="M1287 4373 c-16 -15 -5 -24 25 -21 41 4 50 28 11 28 -17 0 -33 -3
-36 -7z"/>
<path d="M3981 4361 c-9 -6 -5 -8 13 -8 14 0 26 3 26 8 0 11 -21 11 -39 0z"/>
<path d="M905 4350 c-3 -5 -1 -10 4 -10 6 0 11 5 11 10 0 6 -2 10 -4 10 -3 0
-8 -4 -11 -10z"/>
<path d="M350 4330 c0 -5 5 -10 10 -10 6 0 10 5 10 10 0 6 -4 10 -10 10 -5 0
-10 -4 -10 -10z"/>
<path d="M6285 4251 c-3 -6 3 -10 12 -10 10 -1 34 -3 53 -5 32 -4 33 -3 16 10
-22 16 -72 19 -81 5z"/>
<path d="M769 4234 c-5 -7 3 -15 26 -24 19 -8 35 -20 35 -27 0 -7 5 -13 10
-13 6 0 10 -7 10 -15 0 -18 3 -18 60 -1 28 8 49 22 57 36 10 21 8 25 -24 42
-26 14 -51 18 -100 16 -35 -2 -69 -8 -74 -14z"/>
<path d="M5129 4217 c-28 -15 -37 -37 -12 -33 10 2 54 7 98 11 71 7 78 6 67
-7 -11 -13 -9 -17 11 -22 45 -11 277 -19 277 -10 0 23 -28 34 -84 34 -77 0
-137 10 -130 21 3 5 1 9 -5 9 -5 0 -13 -4 -16 -10 -3 -5 -12 -10 -18 -10 -7 0
-6 4 3 10 11 7 7 10 -20 11 -19 1 -60 3 -91 4 -31 2 -67 -2 -80 -8z"/>
<path d="M6478 4213 c6 -2 18 -2 25 0 6 3 1 5 -13 5 -14 0 -19 -2 -12 -5z"/>
<path d="M6543 4202 c27 -29 75 -48 89 -34 11 11 -17 27 -82 47 -25 8 -25 7
-7 -13z"/>
<path d="M7515 4201 c-6 -11 9 -23 19 -14 9 9 7 23 -3 23 -6 0 -12 -4 -16 -9z"/>
<path d="M613 4190 c-13 -5 -23 -16 -23 -25 0 -19 4 -19 38 1 19 11 22 12 10
1 -25 -20 -22 -37 7 -37 16 0 25 -6 25 -15 0 -8 5 -15 10 -15 6 0 10 -7 10
-16 0 -8 -4 -13 -9 -9 -6 3 -15 -4 -21 -15 -8 -16 -8 -20 4 -20 8 0 17 -6 19
-12 4 -10 8 -10 16 2 5 8 7 18 5 22 -3 4 4 8 15 8 12 0 21 7 21 15 0 8 -4 15
-10 15 -5 0 -9 18 -7 40 2 22 0 40 -5 40 -4 0 -5 7 -2 15 5 12 -3 15 -37 14
-24 0 -54 -4 -66 -9z"/>
<path d="M6303 4173 c-13 -2 -23 -8 -23 -13 0 -5 10 -19 23 -31 12 -12 16 -19
10 -15 -9 5 -11 2 -7 -9 4 -9 19 -19 35 -22 42 -8 38 -34 -3 -27 -26 3 -28 2
-13 -5 11 -5 50 -9 85 -10 36 -1 86 -3 112 -4 55 -3 55 8 -1 17 -65 10 -60 27
6 20 32 -4 69 -7 83 -8 14 0 30 -7 36 -15 12 -16 50 -11 110 14 34 14 36 17
22 33 -8 9 -18 25 -21 35 -8 20 -37 23 -37 3 0 -8 3 -16 8 -19 4 -2 0 -2 -8 1
-8 3 -44 10 -80 17 -36 7 -81 18 -100 24 -19 6 -55 10 -80 10 -25 -1 -65 1
-90 4 -25 3 -55 3 -67 0z"/>
<path d="M6180 4161 c0 -10 30 -24 37 -17 3 2 -5 9 -16 16 -12 6 -21 7 -21 1z"/>
<path d="M6800 4137 c0 -14 19 -37 31 -37 11 0 39 30 39 41 0 5 -16 9 -35 9
-22 0 -35 -5 -35 -13z"/>
<path d="M6977 4121 c14 -15 26 -20 34 -15 8 4 27 7 44 6 53 -4 13 18 -45 25
l-54 6 21 -22z"/>
<path d="M6220 4126 c0 -2 7 -7 16 -10 8 -3 12 -2 9 4 -6 10 -25 14 -25 6z"/>
<path d="M1997 4063 c5 -13 1 -15 -20 -9 -16 4 -27 2 -27 -4 0 -5 8 -10 19
-10 10 0 34 -3 52 -6 32 -5 33 -5 11 8 -12 8 -20 17 -17 20 3 3 -1 8 -9 11
-11 4 -13 1 -9 -10z"/>
<path d="M1630 4055 c7 -8 16 -15 20 -15 5 0 42 -22 84 -50 54 -36 94 -54 147
-66 40 -9 87 -23 106 -31 33 -13 84 -9 67 6 -25 21 -206 73 -228 65 -14 -5
-28 5 -42 31 -13 23 -85 61 -133 69 -29 5 -32 4 -21 -9z"/>
<path d="M6088 4041 c-62 -9 -72 -21 -20 -23 23 -1 49 -2 59 -2 9 -1 17 7 19
17 1 9 -1 16 -4 16 -4 -1 -28 -5 -54 -8z"/>
<path d="M6165 4020 c-3 -5 -2 -10 4 -10 5 0 13 5 16 10 3 6 2 10 -4 10 -5 0
-13 -4 -16 -10z"/>
<path d="M2030 4010 c-24 -7 -24 -8 13 -24 45 -20 109 -33 88 -18 -7 5 -10 15
-7 21 5 7 -1 11 -14 11 -12 0 -29 4 -38 8 -9 5 -28 6 -42 2z"/>
<path d="M1146 3985 c5 -19 2 -25 -10 -25 -9 0 -19 -7 -22 -15 -5 -13 -9 -13
-34 0 -16 8 -33 22 -38 31 -8 14 -18 15 -56 10 -40 -6 -46 -10 -46 -31 0 -29
62 -85 94 -85 13 0 26 -6 29 -13 3 -7 21 -18 41 -24 36 -11 43 -6 37 30 0 4 2
6 7 6 4 -1 14 -1 22 0 13 1 13 2 0 11 -8 5 -10 10 -4 10 6 0 17 -7 24 -15 14
-17 20 -18 40 -5 13 8 12 11 -5 24 -20 16 -20 16 3 22 25 7 26 8 12 35 -6 10
-21 19 -33 19 -12 0 -29 5 -37 10 -13 9 -13 11 0 20 12 8 11 10 -8 10 -19 0
-21 -4 -16 -25z m43 -69 c9 -11 6 -12 -14 -8 -14 2 -25 8 -25 13 0 14 26 11
39 -5z"/>
<path d="M1270 3981 c27 -29 60 -41 60 -22 0 11 -37 36 -67 45 -20 6 -19 4 7
-23z"/>
<path d="M1345 3971 c-6 -16 11 -31 38 -31 9 0 18 1 20 1 1 1 21 -8 44 -20 23
-11 51 -21 62 -21 11 0 23 -4 26 -10 14 -23 24 -8 11 18 -21 41 -46 58 -101
71 -62 14 -93 11 -100 -8z"/>
<path d="M2160 3970 c21 -21 74 -27 85 -10 3 6 -1 11 -9 11 -29 3 -34 4 -42
12 -4 4 -18 7 -31 7 l-23 0 20 -20z"/>
<path d="M5851 3961 c-34 -9 -37 -29 -6 -41 37 -14 50 -13 36 4 -17 20 13 42
42 30 26 -12 70 -7 62 7 -7 10 -97 11 -134 0z"/>
<path d="M7928 3963 c7 -3 16 -2 19 1 4 3 -2 6 -13 5 -11 0 -14 -3 -6 -6z"/>
<path d="M3198 3953 c12 -2 30 -2 40 0 9 3 -1 5 -23 4 -22 0 -30 -2 -17 -4z"/>
<path d="M7525 3950 c3 -5 13 -10 21 -10 8 0 14 5 14 10 0 6 -9 10 -21 10 -11
0 -17 -4 -14 -10z"/>
<path d="M6008 3943 c6 -2 18 -2 25 0 6 3 1 5 -13 5 -14 0 -19 -2 -12 -5z"/>
<path d="M7476 3935 c-3 -9 0 -15 9 -15 8 0 15 7 15 15 0 8 -4 15 -9 15 -5 0
-11 -7 -15 -15z"/>
<path d="M2240 3931 c0 -17 50 -33 82 -26 30 7 30 24 0 23 -9 -1 -32 2 -49 6
-22 5 -33 4 -33 -3z"/>
<path d="M1373 3894 c3 -19 1 -24 -10 -20 -10 4 -13 1 -8 -13 5 -17 2 -19 -21
-12 -32 8 -94 2 -94 -10 0 -5 17 -16 37 -24 45 -19 157 -30 148 -15 -4 6 13
10 45 10 54 0 60 14 10 25 -27 6 -44 35 -20 35 26 0 5 20 -37 34 -59 20 -56
21 -50 -10z m47 -48 c0 -2 -7 -7 -16 -10 -8 -3 -12 -2 -9 4 6 10 25 14 25 6z"/>
<path d="M1717 3898 c-4 -15 1 -30 15 -45 29 -31 37 -29 31 8 -5 32 -5 32 34
25 l38 -6 -45 20 c-58 25 -67 24 -73 -2z"/>
<path d="M2388 3863 c14 -12 28 -23 31 -24 3 0 43 -1 88 -2 44 -1 79 -5 77 -8
-2 -4 22 -10 54 -13 90 -10 152 -27 152 -41 0 -7 14 -15 31 -19 46 -9 56 -7
38 7 -9 7 -17 17 -17 22 -1 6 -21 12 -44 15 -24 3 -53 11 -64 18 -12 6 -47 15
-78 18 -37 5 -56 11 -56 20 0 18 -27 23 -141 27 l-97 4 26 -24z"/>
<path d="M3085 3850 c-4 -6 19 -10 62 -10 48 0 63 3 53 10 -20 13 -107 13
-115 0z"/>
<path d="M2640 3790 c0 -16 84 -50 92 -37 4 6 -1 16 -10 23 -23 15 -82 26 -82
14z"/>
<path d="M3508 3782 c-33 -4 -37 -18 -8 -27 27 -9 180 -2 180 8 0 4 -10 7 -22
8 -13 0 -45 4 -73 7 -27 4 -62 6 -77 4z"/>
<path d="M6000 3780 c8 -5 22 -10 30 -10 13 0 13 1 0 10 -8 5 -22 10 -30 10
-13 0 -13 -1 0 -10z"/>
<path d="M1460 3775 c0 -10 97 -53 135 -60 22 -4 45 -10 50 -15 11 -8 135 -24
135 -16 0 16 -82 47 -152 57 -46 6 -100 18 -122 25 -43 15 -46 16 -46 9z"/>
<path d="M1226 3736 c8 -14 35 -32 59 -42 24 -9 46 -22 49 -30 3 -7 33 -27 67
-44 56 -29 62 -30 78 -16 10 9 25 16 34 16 9 0 18 4 21 9 9 15 -16 18 -46 7
-24 -9 -32 -7 -60 20 -56 51 -94 73 -125 72 -17 -1 -41 6 -54 16 -33 23 -42
20 -23 -8z"/>
<path d="M5412 3748 c-18 -18 -15 -23 14 -26 14 -1 33 -6 42 -12 14 -8 12 -9
-10 -10 -40 0 -40 0 -68 -20 -14 -9 -38 -21 -55 -25 l-30 -9 28 -4 c16 -2 41
1 57 6 18 7 31 7 38 0 5 -5 34 -6 71 -2 44 5 59 10 52 17 -12 12 -15 48 -3 46
4 -1 23 -1 42 1 29 1 32 3 15 10 -11 5 -34 9 -50 9 -17 1 -36 6 -42 12 -16 16
-88 20 -101 7z"/>
<path d="M1074 3726 c-4 -10 -1 -24 9 -33 25 -25 35 -10 16 21 -16 26 -19 28
-25 12z"/>
<path d="M6667 3700 c-8 -31 26 -45 48 -20 21 23 20 25 -16 33 -21 6 -28 3
-32 -13z"/>
<path d="M8276 3693 c-6 -14 -5 -15 5 -6 7 7 10 15 7 18 -3 3 -9 -2 -12 -12z"/>
<path d="M6868 3683 c7 -3 16 -2 19 1 4 3 -2 6 -13 5 -11 0 -14 -3 -6 -6z"/>
<path d="M4628 3670 c-3 -10 -16 -14 -40 -12 -40 4 -62 -15 -26 -22 146 -28
250 -33 305 -15 19 6 32 13 30 15 -2 3 -35 7 -73 9 -37 3 -71 10 -75 16 -4 7
-27 10 -58 7 -31 -3 -52 0 -54 6 -2 6 -6 4 -9 -4z"/>
<path d="M1500 3666 c0 -9 30 -14 35 -6 4 6 -3 10 -14 10 -12 0 -21 -2 -21 -4z"/>
<path d="M1568 3599 c-22 -14 39 -29 89 -22 37 5 42 8 25 14 -32 12 -99 17
-114 8z"/>
<path d="M4760 3560 l-25 -8 28 -1 c15 -1 27 4 27 9 0 6 -1 10 -2 9 -2 -1 -14
-5 -28 -9z"/>
<path d="M4495 3520 c-4 -6 -10 -8 -15 -5 -5 3 -30 -3 -56 -13 -43 -17 -45
-19 -23 -25 70 -19 189 3 189 34 0 16 -4 17 -27 8 -18 -7 -30 -6 -37 1 -13 13
-23 13 -31 0z"/>
<path d="M5280 3511 c-20 -8 -24 -31 -4 -31 8 0 12 -5 8 -11 -4 -8 0 -8 15 0
11 7 21 10 21 7 0 -3 14 0 31 6 17 6 27 14 22 18 -12 11 -76 19 -93 11z"/>
<path d="M5500 3510 c0 -5 17 -10 38 -9 30 0 33 2 17 9 -28 12 -55 12 -55 0z"/>
<path d="M7175 3410 c32 -15 56 -18 114 -15 101 6 103 15 3 15 -44 0 -84 5
-87 10 -3 6 -21 10 -38 9 l-32 -1 40 -18z"/>
<path d="M7028 3373 c7 -3 16 -2 19 1 4 3 -2 6 -13 5 -11 0 -14 -3 -6 -6z"/>
<path d="M6823 3283 c-43 -6 -45 -33 -3 -33 17 0 30 5 30 10 0 6 5 10 10 10 6
0 10 -6 10 -14 0 -21 83 -28 132 -11 23 8 55 11 72 8 27 -6 30 -5 18 10 -20
24 -86 31 -123 13 -29 -14 -35 -14 -62 -1 -17 8 -35 14 -41 13 -6 0 -26 -3
-43 -5z"/>
<path d="M1260 3179 c0 -5 5 -7 10 -4 6 3 10 8 10 11 0 2 -4 4 -10 4 -5 0 -10
-5 -10 -11z"/>
<path d="M5380 3149 c0 -13 14 -16 45 -9 l30 6 -37 5 c-21 3 -38 2 -38 -2z"/>
<path d="M1280 3141 c0 -6 5 -13 10 -16 6 -3 10 1 10 9 0 9 -4 16 -10 16 -5 0
-10 -4 -10 -9z"/>
<path d="M5645 3100 c3 -5 11 -10 16 -10 6 0 7 5 4 10 -3 6 -11 10 -16 10 -6
0 -7 -4 -4 -10z"/>
<path d="M1256 3075 c4 -8 8 -15 10 -15 2 0 4 7 4 15 0 8 -4 15 -10 15 -5 0
-7 -7 -4 -15z"/>
<path d="M4381 3081 c-11 -7 -10 -11 7 -20 16 -9 24 -8 36 5 9 8 16 16 16 18
0 6 -47 4 -59 -3z"/>
<path d="M5940 3069 c0 -5 9 -9 20 -9 11 0 20 2 20 4 0 2 -9 6 -20 9 -11 3
-20 1 -20 -4z"/>
<path d="M5898 3063 c7 -3 16 -2 19 1 4 3 -2 6 -13 5 -11 0 -14 -3 -6 -6z"/>
<path d="M4764 3039 c-3 -5 18 -9 47 -9 29 0 50 2 48 4 -10 9 -90 13 -95 5z"/>
<path d="M2810 3032 c0 -15 109 -37 121 -25 13 13 -1 18 -73 28 -27 3 -48 2
-48 -3z"/>
<path d="M2368 2973 c6 -2 18 -2 25 0 6 3 1 5 -13 5 -14 0 -19 -2 -12 -5z"/>
<path d="M5631 2804 c-1 -6 2 -13 5 -17 8 -8 34 3 34 15 0 6 -6 6 -14 -1 -11
-9 -15 -9 -19 1 -3 7 -6 8 -6 2z"/>
<path d="M5680 2774 c0 -11 6 -15 20 -11 10 3 21 1 24 -4 2 -5 3 -4 2 3 -2 7
-11 12 -21 10 -10 -2 -14 1 -10 7 3 6 1 11 -4 11 -6 0 -11 -7 -11 -16z"/>
<path d="M4583 2687 c4 -14 61 -27 77 -17 9 5 9 9 1 14 -6 4 -11 5 -11 3 0 -3
-16 -1 -36 3 -25 6 -34 5 -31 -3z"/>
<path d="M6565 2691 l-40 -6 49 -28 c28 -15 56 -25 63 -23 7 3 13 1 13 -4 0
-6 11 -10 25 -10 28 0 30 7 12 31 -11 14 -72 51 -79 48 -2 -1 -21 -5 -43 -8z"/>
<path d="M4760 2646 c0 -7 71 -13 75 -6 2 3 -14 7 -36 8 -21 2 -39 1 -39 -2z"/>
<path d="M4860 2639 c0 -5 5 -7 10 -4 6 3 10 8 10 11 0 2 -4 4 -10 4 -5 0 -10
-5 -10 -11z"/>
<path d="M5935 2530 c-2 -4 1 -7 8 -7 7 -1 39 -11 72 -23 33 -12 74 -24 90
-27 17 -3 32 -8 35 -13 5 -8 93 -19 165 -21 22 -1 56 -5 75 -10 19 -4 67 -10
105 -13 116 -9 177 -15 245 -25 117 -18 254 5 267 44 2 6 -72 10 -190 9 -105
0 -208 3 -227 7 -88 19 -127 19 -115 -1 9 -15 -20 -17 -92 -7 -75 11 -91 22
-48 33 49 12 24 24 -52 25 -43 0 -87 2 -98 4 -17 3 -57 9 -213 29 -12 2 -24 0
-27 -4z"/>
<path d="M6482 2524 c-7 -8 -8 -14 -3 -14 10 0 25 19 20 25 -2 1 -10 -3 -17
-11z"/>
<path d="M6827 2513 c3 -7 9 -13 15 -13 5 0 16 -7 24 -15 9 -8 30 -16 47 -16
18 -1 48 -3 67 -5 83 -8 109 -6 132 11 l23 16 -30 -2 c-16 -1 -41 1 -55 5 -14
3 -41 8 -60 10 -19 2 -48 9 -64 15 -39 16 -106 11 -99 -6z"/>
<path d="M6530 2516 c0 -2 7 -7 16 -10 8 -3 12 -2 9 4 -6 10 -25 14 -25 6z"/>
<path d="M6360 2490 c0 -5 5 -10 10 -10 6 0 10 5 10 10 0 6 -4 10 -10 10 -5 0
-10 -4 -10 -10z"/>
<path d="M7168 2422 c-17 -2 -30 -11 -33 -23 -4 -11 -9 -18 -12 -15 -7 7 -33
-19 -33 -33 0 -20 31 -7 84 36 33 27 31 39 -6 35z"/>
<path d="M7705 5030 c3 -5 8 -10 11 -10 2 0 4 5 4 10 0 6 -5 10 -11 10 -5 0
-7 -4 -4 -10z"/>
</g>
</svg>
